<svg width="42" height="37" viewBox="0 0 42 37" fill="none" xmlns="http://www.w3.org/2000/svg">
<path d="M27.0443 12.6485L24.3211 7.10052C23.7506 5.81738 23.7506 5.81738 21.8749 5.81738C20.6508 5.81738 20.5123 5.81738 19.7517 6.49126L13.1329 12.87C12.3667 13.6501 12.2744 13.7424 12.2744 15.3255C12.2744 16.4951 12.6234 16.6742 13.9831 17.4395L19.6594 20.5873V28.8954H22.6134V18.3718C22.6134 18.3718 19.9363 16.8025 18.1547 15.6025L22.6688 10.8484C24.395 13.4793 25.1889 15.6025 26.1766 15.6025H32.9523V12.6485H27.0443Z" fill="#5F5F5F"/>
<path d="M33.3211 36.2804C31.6414 36.2804 29.9994 35.7823 28.6028 34.8492C27.2062 33.916 26.1177 32.5896 25.4749 31.0377C24.8321 29.4859 24.6639 27.7783 24.9916 26.1309C25.3193 24.4835 26.1281 22.9702 27.3158 21.7825C28.5036 20.5947 30.0168 19.7859 31.6643 19.4582C33.3117 19.1305 35.0193 19.2987 36.5711 19.9415C38.123 20.5843 39.4493 21.6728 40.3825 23.0694C41.3157 24.4661 41.8138 26.108 41.8138 27.7877C41.8114 30.0394 40.9158 32.1981 39.3236 33.7903C37.7315 35.3824 35.5728 36.278 33.3211 36.2804V36.2804ZM33.3211 22.249C32.2256 22.249 31.1548 22.5738 30.2439 23.1824C29.3331 23.7911 28.6232 24.6561 28.204 25.6682C27.7848 26.6802 27.6751 27.7939 27.8888 28.8683C28.1025 29.9427 28.63 30.9296 29.4046 31.7042C30.1792 32.4788 31.1661 33.0063 32.2405 33.22C33.315 33.4337 34.4286 33.3241 35.4407 32.9048C36.4527 32.4856 37.3178 31.7757 37.9264 30.8649C38.535 29.954 38.8598 28.8832 38.8598 27.7877C38.8581 26.3193 38.274 24.9115 37.2357 23.8731C36.1973 22.8348 34.7895 22.2507 33.3211 22.249V22.249ZM8.95072 36.2804C7.27102 36.2804 5.62904 35.7823 4.23242 34.8492C2.8358 33.916 1.74727 32.5896 1.10448 31.0377C0.461688 29.4859 0.293504 27.7783 0.621197 26.1309C0.94889 24.4835 1.75774 22.9702 2.94547 21.7825C4.13319 20.5947 5.64645 19.7859 7.29387 19.4582C8.9413 19.1305 10.6489 19.2987 12.2007 19.9415C13.7526 20.5843 15.079 21.6728 16.0121 23.0694C16.9453 24.4661 17.4434 26.108 17.4434 27.7877C17.441 30.0394 16.5454 32.1981 14.9533 33.7903C13.3611 35.3824 11.2024 36.278 8.95072 36.2804V36.2804ZM8.95072 22.249C7.85526 22.249 6.78441 22.5738 5.87357 23.1824C4.96273 23.7911 4.25282 24.6561 3.83361 25.6682C3.41439 26.6802 3.30471 27.7939 3.51842 28.8683C3.73213 29.9427 4.25965 30.9296 5.03425 31.7042C5.80886 32.4788 6.79576 33.0063 7.87017 33.22C8.94457 33.4337 10.0582 33.3241 11.0703 32.9048C12.0824 32.4856 12.9474 31.7757 13.556 30.8649C14.1646 29.954 14.4894 28.8832 14.4894 27.7877C14.4877 26.3193 13.9036 24.9115 12.8653 23.8731C11.827 22.8348 10.4192 22.2507 8.95072 22.249V22.249ZM27.0439 6.74058C27.433 6.74193 27.8184 6.66614 28.1781 6.51759C28.5377 6.36904 28.8642 6.15067 29.1389 5.87512C29.4136 5.59957 29.631 5.2723 29.7784 4.91223C29.9258 4.55216 30.0004 4.16644 29.9979 3.77737C30.0022 3.39024 29.9292 3.00614 29.7834 2.64752C29.6375 2.28891 29.4216 1.96298 29.1482 1.68879C28.8749 1.4146 28.5497 1.19766 28.1915 1.05065C27.8333 0.903646 27.4495 0.829521 27.0623 0.832612C26.6744 0.8314 26.2901 0.906607 25.9312 1.05394C25.5723 1.20127 25.246 1.41784 24.9709 1.69129C24.6957 1.96473 24.4771 2.2897 24.3275 2.64763C24.1779 3.00556 24.1003 3.38944 24.0991 3.77737C24.0979 4.16529 24.1731 4.54965 24.3204 4.90851C24.4678 5.26737 24.6844 5.59369 24.9578 5.86885C25.2312 6.14401 25.5562 6.36262 25.9141 6.51219C26.2721 6.66176 26.656 6.73937 27.0439 6.74058V6.74058Z" fill="#5F5F5F"/>
</svg>
