<svg width="34" height="45" viewBox="0 0 34 45" fill="none" xmlns="http://www.w3.org/2000/svg">
<path fill-rule="evenodd" clip-rule="evenodd" d="M16.8476 0.855508C16.7648 0.937405 16.697 1.10567 16.697 1.22951C16.697 1.35322 16.6435 1.55151 16.5782 1.67001C16.5129 1.78852 16.3659 2.18261 16.2514 2.54569C16.1371 2.90889 15.9592 3.23797 15.8563 3.27706C15.7285 3.32558 15.6904 3.45401 15.7366 3.68208C15.7994 3.99267 15.7419 4.04553 14.9131 4.43975C14.423 4.67279 13.3742 5.20958 12.5823 5.6326C11.4866 6.21791 11.0609 6.38555 10.8009 6.33418C10.4063 6.25613 10.2752 6.45293 10.4364 6.88178C10.5542 7.19522 11.0062 7.40728 11.5567 7.40728C11.8657 7.40728 12.0655 7.58497 12.8744 8.57965C14.361 10.4074 14.5487 10.151 9.99361 12.5154C6.34542 14.4091 6.2291 14.4593 5.89057 14.2861C5.42154 14.0463 5.18502 14.0619 5.09618 14.3386C5.00245 14.6305 5.11061 14.9319 5.49193 15.4419C5.78228 15.8303 5.82595 15.8452 6.67454 15.8452H7.55563L8.34449 16.5342L9.13323 17.2234L9.20525 18.0736L9.2774 18.9238L8.77023 19.4629C7.64195 20.6623 6.73665 22.2582 6.19761 23.998C5.8927 24.9823 5.8587 25.2848 5.85142 27.075C5.84452 28.7831 5.88291 29.1954 6.12671 30.0269C7.20028 33.6901 9.72848 36.3995 13.2634 37.6752C13.8081 37.8718 14.5211 38.0723 14.848 38.1208C15.586 38.2303 15.6139 38.3933 14.909 38.4771C14.6156 38.512 13.8393 38.6039 13.1837 38.6813C12.5281 38.7588 11.4861 38.9291 10.8683 39.0599C9.55231 39.3382 9.27163 39.3533 9.31454 39.1424C9.40112 38.7158 9.14188 38.2965 8.63321 38.0407C7.62213 37.5323 6.59198 36.7632 5.58905 35.7679C4.6175 34.8036 2.95382 32.729 2.5784 32.0133C2.47827 31.8224 2.35317 31.6662 2.30047 31.6662C2.24777 31.6662 2.17637 32.2525 2.14187 32.9691L2.07913 34.272L1.04396 34.308C0.474553 34.3279 0.00878906 34.398 0.00878906 34.464C0.00878906 34.6963 1.81237 37.0727 2.73072 38.0502C3.52247 38.893 5.14023 40.1412 5.66522 40.3142C5.78279 40.353 5.7218 40.8234 5.41853 42.2203C5.19707 43.2403 4.98966 44.199 4.95753 44.3506C4.9022 44.6127 4.9475 44.6029 5.87325 44.1533C7.26139 43.4793 8.01599 43.2047 9.79687 42.7257C12.4795 42.0043 13.6104 41.8496 16.1951 41.851C20.2658 41.8531 24.029 42.6741 27.5192 44.3216C27.9851 44.5415 28.3656 44.7154 28.3647 44.7083C28.3639 44.7012 28.1663 43.7195 27.9255 42.5268C27.4156 39.9999 27.4541 40.2902 27.6288 40.2902C27.9055 40.2902 29.3223 39.1851 30.1965 38.2874C31.1954 37.2617 33.0088 34.9069 33.0088 34.6355C33.0088 34.4976 32.8006 34.4582 32.0751 34.4582C31.5298 34.4582 31.1058 34.4012 31.0559 34.3213C31.0088 34.246 30.9662 33.6318 30.961 32.9563C30.956 32.2809 30.9122 31.7283 30.8639 31.7283C30.8156 31.7283 30.4069 32.2726 29.9559 32.9381C28.4215 35.201 26.5638 37.0183 24.7718 38.0094C24.2628 38.291 23.9116 38.5767 23.8373 38.7699C23.7333 39.0403 23.6673 39.0687 23.3132 38.9951C22.1781 38.7591 20.9196 38.5663 19.993 38.4864C19.4251 38.4374 18.9882 38.3531 19.0219 38.2991C19.0557 38.245 19.3679 38.1404 19.7158 38.0667C23.2377 37.3197 26.5718 34.433 27.8106 31.0581C28.2565 29.8429 28.4918 28.4997 28.4907 27.1733C28.4892 25.1054 28.1713 23.7826 27.2266 21.9118C26.7414 20.9506 25.3641 19.1147 25.0345 18.9897C24.8998 18.9385 24.8554 18.7079 24.8627 18.0965L24.8725 17.2722L25.7531 16.5428L26.6338 15.8134L27.4517 15.8962C28.4136 15.9937 28.7987 15.8199 28.93 15.229C29.0433 14.7186 28.8943 14.108 28.6567 14.108C28.5513 14.108 28.2993 14.2459 28.0966 14.4147L27.7279 14.7214L26.259 13.833C23.359 12.0789 20.6493 10.3614 20.558 10.2196C20.3461 9.89013 20.5131 9.52346 21.3441 8.49304C22.1305 7.51784 22.2623 7.40728 22.6385 7.40728C23.1363 7.40728 23.4727 7.09061 23.4727 6.62194C23.4727 6.28442 23.1921 6.16071 23.0267 6.42539C22.8891 6.64576 22.5894 6.50319 20.5317 5.2385C18.8855 4.22682 18.5823 3.99453 18.6465 3.79438C18.6961 3.63976 18.6138 3.42758 18.4119 3.19032C18.2407 2.98918 18.0603 2.58763 18.0107 2.29777C17.9613 2.00802 17.8773 1.68503 17.8243 1.57993C17.7712 1.47495 17.6664 1.23546 17.5915 1.04784C17.4476 0.687371 17.1067 0.599269 16.8476 0.855508ZM17.3244 1.21027C17.3244 1.27455 17.2397 1.32704 17.1362 1.32704C16.9422 1.32704 16.8868 1.18062 17.0281 1.04089C17.1284 0.941748 17.3244 1.0538 17.3244 1.21027ZM17.5921 3.00221L17.7952 3.5606H17.1196C16.5115 3.5606 16.4566 3.53888 16.5704 3.34345C16.64 3.22407 16.752 2.97267 16.8193 2.78506C17.0107 2.25173 17.3544 2.34839 17.5921 3.00221ZM18.0772 4.72838V5.15164L17.293 5.19953C16.4279 5.25227 16.1951 5.15585 16.1951 4.74488C16.1951 4.3411 16.279 4.30512 17.2199 4.30512H18.0772V4.72838ZM15.9345 5.71338C15.9398 5.83957 15.784 6.09085 15.5884 6.27177C15.3928 6.45268 15.2087 6.67207 15.1795 6.75918C15.1387 6.88066 14.6769 6.9097 13.2029 6.88326L11.2795 6.84889L13.455 5.72008L15.6305 4.59126L15.7776 5.0376C15.8586 5.28304 15.9292 5.58718 15.9345 5.71338ZM20.7749 5.95013C21.5341 6.41782 22.211 6.85535 22.2791 6.92248C22.3603 7.00239 21.7253 7.03899 20.4365 7.02882C18.7977 7.01579 18.4814 6.9839 18.5381 6.83772C18.5755 6.74119 18.5148 6.43643 18.4031 6.16046C18.2564 5.79763 18.2352 5.59363 18.3269 5.42425C18.3966 5.29545 18.4537 5.04219 18.4537 4.86152V4.53306L18.9242 4.81635C19.183 4.97221 20.0158 5.48233 20.7749 5.95013ZM17.5056 5.78299C17.6098 5.94989 17.4475 6.2905 17.2635 6.2905C17.0428 6.2905 16.7835 5.95696 16.8818 5.79962C16.9815 5.64016 17.4092 5.62875 17.5056 5.78299ZM15.9168 7.6361C16.0416 7.7144 15.9686 8.04025 15.5908 9.09226C15.323 9.83752 14.9695 10.9361 14.8051 11.5332C14.541 12.4922 14.4728 12.6189 14.2212 12.6189C13.8551 12.6189 13.8619 12.7604 14.2502 13.2168C14.5246 13.5393 14.5639 13.7036 14.5639 14.5291V15.4729H10.4941C8.25578 15.4729 6.2872 15.4213 6.11956 15.3584C5.95205 15.2953 5.7804 15.155 5.73837 15.0466C5.67801 14.8909 5.72306 14.8646 5.95293 14.9216C6.17 14.9756 7.13353 14.5308 9.74517 13.1715C11.6708 12.1691 13.4931 11.2067 13.7948 11.0328L14.343 10.7167L14.2699 10.1069C14.2082 9.59083 14.0805 9.36115 13.4394 8.61365C13.0227 8.12773 12.6818 7.68536 12.6818 7.63076C12.6818 7.50022 15.7081 7.50519 15.9168 7.6361ZM21.3205 7.72619C21.3445 7.74616 21.0516 8.14969 20.6697 8.62308C19.9951 9.45918 19.9778 9.49988 20.0615 10.0536L20.1476 10.6234L23.7655 12.8699C25.7553 14.1055 27.4614 15.1459 27.5566 15.1822C27.652 15.2183 27.9013 15.1272 28.1109 14.9797C28.4097 14.7691 28.4917 14.7511 28.4917 14.8959C28.4917 15.4884 28.6047 15.4729 24.2748 15.4729H20.2103V14.3014C20.2103 13.6543 20.2665 13.0955 20.3358 13.0532C20.5561 12.9186 20.4779 12.404 20.2274 12.3392C20.0734 12.2994 19.9622 12.1148 19.9025 11.7997C19.8526 11.5364 19.5344 10.4996 19.1953 9.49591C18.8564 8.4923 18.5791 7.64019 18.5791 7.60235C18.5791 7.53509 21.2347 7.65508 21.3205 7.72619ZM17.7635 7.96642C17.4767 8.06531 16.7193 8.09237 16.7759 8.00178C16.8097 7.9478 17.0739 7.9081 17.3632 7.91343C17.6524 7.91877 17.8326 7.94272 17.7635 7.96642ZM17.7008 8.39998C17.9318 8.47319 17.8161 8.49937 17.2616 8.49937C16.7072 8.49937 16.5915 8.47319 16.8225 8.39998C16.995 8.34538 17.1926 8.30058 17.2616 8.30058C17.3307 8.30058 17.5283 8.34538 17.7008 8.39998ZM17.7322 8.85984C17.5768 8.88937 17.3229 8.88937 17.1675 8.85984C17.0122 8.83018 17.1393 8.80599 17.4499 8.80599C17.7604 8.80599 17.8875 8.83018 17.7322 8.85984ZM18.2356 9.37257C18.3573 9.42009 17.9183 9.46216 17.2601 9.466C16.6021 9.46985 16.1355 9.42791 16.2235 9.37269C16.4167 9.25146 17.9258 9.25133 18.2356 9.37257ZM18.5604 9.90118C19.1418 10.1016 19.0415 10.2547 18.4223 10.1121C18.1289 10.0446 17.4106 10.0239 16.8259 10.0661C16.142 10.1155 15.8063 10.1001 15.8848 10.023C15.9931 9.91681 16.3558 9.87164 17.7762 9.78788C17.9902 9.77523 18.3431 9.82623 18.5604 9.90118ZM18.6952 10.5474C18.9316 10.6289 19.1509 10.7742 19.1828 10.8704C19.2241 10.995 19.1764 11.0209 19.0173 10.9605C18.5256 10.7739 16.9777 10.6317 16.263 10.7074C15.7465 10.7621 15.545 10.7472 15.6305 10.6606C15.6995 10.5907 15.8689 10.5067 16.0069 10.4738C16.5082 10.3546 18.2761 10.403 18.6952 10.5474ZM18.3082 11.1372C18.649 11.2095 19.033 11.3455 19.1613 11.4395C19.3378 11.5687 19.1376 11.554 18.3421 11.3797C17.6793 11.2345 17.1885 11.1871 17.0165 11.2517C16.5161 11.44 15.2726 11.549 15.368 11.3965C15.5899 11.0414 17.1909 10.9002 18.3082 11.1372ZM18.027 11.924C18.7509 12.6399 18.6415 12.7581 17.293 12.7167C16.1523 12.6816 16.1324 12.6756 16.1324 12.3747C16.1324 12.1469 16.2611 11.9964 16.6343 11.7873C17.3115 11.4081 17.5266 11.4292 18.027 11.924ZM19.4499 12.0666C19.5494 12.1624 19.5944 12.2767 19.5499 12.3206C19.3907 12.4782 18.6362 12.2415 18.4727 11.9826C18.3109 11.7264 18.3202 11.7212 18.7877 11.8055C19.0526 11.8534 19.3506 11.9708 19.4499 12.0666ZM15.8641 12.0605C15.8243 12.1629 15.6426 12.2449 15.4602 12.2427C15.1415 12.239 15.1381 12.2316 15.3721 12.0566C15.6889 11.8197 15.9567 11.8218 15.8641 12.0605ZM16.0383 12.712C16.0736 12.8168 15.9448 12.8671 15.6409 12.8671C15.1749 12.8671 15.026 12.6808 15.4109 12.5791C15.7458 12.4906 15.9805 12.5403 16.0383 12.712ZM19.081 12.743C18.8377 12.8985 18.7046 12.8985 18.7046 12.743C18.7046 12.6748 18.8316 12.6198 18.9869 12.6208C19.2152 12.6224 19.2332 12.6457 19.081 12.743ZM19.6814 13.4311C19.8021 13.47 19.8338 13.8038 19.8069 14.7572C19.7735 15.9477 19.7547 16.0294 19.5202 16.0035C19.3822 15.9882 18.887 15.9382 18.42 15.8925L17.5708 15.8091L17.6453 15.416C17.7442 14.8945 17.4217 14.5789 17.1076 14.8896C16.9394 15.0559 16.9294 15.1477 17.0505 15.4105C17.2303 15.8009 17.2284 15.8016 15.85 15.8929L14.8149 15.9614L14.816 15.314C14.8165 14.9577 14.8523 14.3762 14.8954 14.0216C14.9658 13.442 15.007 13.3729 15.3021 13.3391C15.7488 13.2879 19.4802 13.3663 19.6814 13.4311ZM15.1913 13.8554C15.1913 14.1231 16.7495 14.5734 16.8911 14.3468C16.9858 14.1951 16.5169 13.9839 16.0853 13.9839C15.8778 13.9839 15.6731 13.928 15.6305 13.8598C15.5312 13.701 15.1913 13.6976 15.1913 13.8554ZM19.0296 13.8288C18.9783 13.8799 18.677 13.9777 18.3601 14.0459C17.6325 14.2026 17.4694 14.4968 18.1631 14.4014C18.8533 14.3064 19.332 14.1039 19.332 13.9068C19.332 13.7206 19.1779 13.6807 19.0296 13.8288ZM17.0734 13.9839C17.0734 14.0521 17.1299 14.108 17.1989 14.108C17.2679 14.108 17.3244 14.0521 17.3244 13.9839C17.3244 13.9156 17.2679 13.8598 17.1989 13.8598C17.1299 13.8598 17.0734 13.9156 17.0734 13.9839ZM15.3168 14.492C15.3168 14.6525 15.7917 15.1007 15.9617 15.1007C16.0404 15.1007 16.1729 15.0083 16.2563 14.8955C16.41 14.6877 16.7619 14.7723 16.6289 14.9851C16.5892 15.0487 16.6166 15.1007 16.6896 15.1007C16.9057 15.1007 16.841 14.7466 16.6029 14.6255C16.28 14.4615 15.3168 14.3615 15.3168 14.492ZM18.5543 14.4739C18.0235 14.576 17.6669 14.822 17.7822 15.0066C17.8293 15.0817 17.9072 15.051 17.9753 14.9304C18.1188 14.677 18.3282 14.6676 18.3282 14.9145C18.3282 15.1546 18.575 15.1518 18.9276 14.9075C19.1881 14.727 19.3217 14.3386 19.1124 14.3704C19.0607 14.3782 18.8095 14.4249 18.5543 14.4739ZM12.9211 16.1003L14.2502 16.1072L13.3092 16.444C12.2338 16.8288 10.9674 17.5025 10.235 18.0795L9.73312 18.4748L9.69548 17.7814C9.66022 17.1306 9.62371 17.0599 9.09947 16.6265C8.79244 16.3725 8.54111 16.1123 8.54111 16.0481C8.54111 15.9768 9.13787 15.9628 10.0665 16.0122C10.9054 16.0569 12.1901 16.0964 12.9211 16.1003ZM25.0762 16.5339C24.544 17.036 24.4804 17.1553 24.4489 17.7093C24.4295 18.0483 24.4082 18.326 24.4016 18.3264C24.3949 18.3267 23.935 18.0261 23.3796 17.6585C22.5321 17.0976 20.7763 16.291 20.183 16.1901C20.0945 16.175 21.2643 16.1314 22.7826 16.0933C24.3008 16.0553 25.5712 16.0129 25.6057 15.9995C25.6403 15.986 25.402 16.2265 25.0762 16.5339ZM16.3206 17.8306C16.3206 19.485 16.3087 19.5678 16.0696 19.5678C15.8311 19.5678 15.8187 19.485 15.8187 17.9029C15.8187 16.2769 15.8492 16.1425 16.2265 16.1031C16.2782 16.0978 16.3206 16.8751 16.3206 17.8306ZM18.1391 16.2161C18.245 16.3854 17.8441 19.3516 17.6955 19.4985C17.3825 19.8081 17.3295 19.3315 17.5166 17.8865C17.6221 17.0709 17.7333 16.3338 17.7635 16.2485C17.8293 16.0628 18.0323 16.0452 18.1391 16.2161ZM14.8887 17.9193C15.1084 19.8519 15.1097 19.8159 14.8149 19.8159C14.627 19.8159 14.5615 19.7301 14.5544 19.4747C14.5491 19.2871 14.4767 18.5571 14.3937 17.8525C14.2613 16.7308 14.2663 16.5584 14.4336 16.4659C14.5386 16.4077 14.6466 16.382 14.6735 16.4085C14.7004 16.4352 14.7972 17.115 14.8887 17.9193ZM20.0862 16.5587C20.087 16.6098 19.8528 17.3357 19.5657 18.1718C19.1404 19.4107 18.9991 19.6919 18.8022 19.6919C18.5184 19.6919 18.5032 19.7709 19.1431 17.9175C19.5276 16.8044 19.6959 16.4656 19.8646 16.4656C19.9857 16.4656 20.0855 16.5075 20.0862 16.5587ZM21.8415 17.2079C21.8415 17.2603 21.5308 17.957 21.1512 18.756C20.7169 19.6703 20.4029 20.1885 20.3043 20.1538C20.0555 20.0665 20.1542 19.7198 20.8319 18.3001C21.3046 17.31 21.5145 16.9885 21.654 17.0415C21.7572 17.0806 21.8415 17.1555 21.8415 17.2079ZM13.1235 18.7477C13.6082 20.1069 13.6571 20.3309 13.4841 20.3965C13.2252 20.4948 13.2112 20.4683 12.6191 18.7679C12.1927 17.5435 12.145 17.3094 12.3017 17.213C12.4032 17.1506 12.5035 17.1164 12.5244 17.1372C12.5454 17.1579 12.8149 17.8827 13.1235 18.7477ZM11.8939 19.4341C12.5701 20.7114 12.6494 20.9289 12.4869 21.0623C12.3837 21.147 12.2819 21.1943 12.2606 21.1676C12.2392 21.1408 11.8692 20.4549 11.4381 19.6432C10.8309 18.5 10.6919 18.144 10.8211 18.063C10.9128 18.0055 11.0161 17.9587 11.0506 17.9591C11.0851 17.9595 11.4646 18.6232 11.8939 19.4341ZM23.6465 18.1797C23.7423 18.3331 21.8372 20.9525 21.672 20.8945C21.4115 20.8032 21.5437 20.5136 22.4054 19.2886C23.189 18.1744 23.4804 17.9141 23.6465 18.1797ZM10.6584 20.4364C11.5362 21.5694 11.6444 21.7626 11.4878 21.918C11.3886 22.0164 11.2871 22.0722 11.2623 22.0421C10.3572 20.9491 9.28919 19.3869 9.34628 19.2396C9.38656 19.1357 9.47113 19.0694 9.53425 19.0921C9.59723 19.1149 10.1032 19.7198 10.6584 20.4364ZM25.1038 19.4676C25.1038 19.6374 22.9862 21.9254 22.8291 21.9254C22.7647 21.9254 22.6775 21.8367 22.6354 21.7282C22.5823 21.5913 22.9159 21.1764 23.7284 20.3696C24.8013 19.3041 25.1038 19.1057 25.1038 19.4676ZM16.948 19.8973C16.948 19.9421 16.5142 20.7239 15.9842 21.6346L15.0203 23.2904H12.9023H10.7841L11.1997 22.7134C12.0666 21.5099 13.6945 20.4426 15.3168 20.0145C16.0401 19.8235 16.948 19.7584 16.948 19.8973ZM19.5651 20.2004C20.69 20.5781 22.1047 21.5529 22.8506 22.4641L23.4761 23.2283L21.5032 23.2626C20.4181 23.2816 19.465 23.2721 19.3851 23.2419C19.3053 23.2116 18.8845 22.5539 18.45 21.7806C18.0155 21.0072 17.5719 20.2395 17.4642 20.0745L17.2683 19.7747L18.0178 19.8535C18.4301 19.897 19.1263 20.053 19.5651 20.2004ZM17.3244 20.3C17.3244 20.3614 17.6696 21.0066 18.0914 21.7336C18.5133 22.4607 18.8341 23.0795 18.8046 23.1088C18.775 23.1381 18.5572 23.1071 18.3207 23.0401C17.7576 22.8804 16.3029 22.8837 15.8721 23.0457C15.6855 23.1158 15.5167 23.1571 15.4967 23.1375C15.4769 23.1178 15.8375 22.4467 16.2984 21.6461C17.0561 20.3298 17.3244 19.9778 17.3244 20.3ZM9.6685 21.4893C10.6099 22.4241 10.8217 22.6977 10.6984 22.8197C10.5752 22.9416 10.2954 22.728 9.33775 21.781C8.28853 20.7435 8.0116 20.3123 8.39418 20.3123C8.44324 20.3123 9.01666 20.8419 9.6685 21.4893ZM26.1999 20.8189C26.2261 20.9757 23.9709 22.8681 23.6626 22.948C23.5945 22.9658 23.5209 22.8878 23.4989 22.7749C23.456 22.5547 25.8159 20.5472 26.0449 20.6091C26.1139 20.6278 26.1837 20.7221 26.1999 20.8189ZM8.85417 22.6161C10.068 23.4807 10.3464 23.7897 10.066 23.9611C9.98884 24.0083 7.88399 22.5906 7.30217 22.0998C7.23943 22.0468 7.38623 21.6772 7.47005 21.6772C7.50631 21.6772 8.1293 22.0998 8.85417 22.6161ZM27.2354 22.5148C27.2343 22.6627 26.7793 22.9793 25.8084 23.5075C25.0244 23.9341 24.3475 24.2831 24.3042 24.2831C24.2609 24.2831 24.2255 24.1763 24.2255 24.0461C24.2255 23.874 24.5953 23.6032 25.5744 23.0582C27.0281 22.249 27.2378 22.1805 27.2354 22.5148ZM18.9453 23.5295C19.563 23.8454 20.7122 24.9463 20.7122 25.222C20.7122 25.4366 20.6504 25.4423 20.3045 25.2593C20.0808 25.1408 20.0018 25.164 19.8035 25.406C19.5713 25.6897 19.572 25.6955 19.8577 25.8468C20.2247 26.041 20.3329 25.9507 20.0129 25.7171C19.8129 25.5711 19.7998 25.5124 19.9364 25.3771C20.0732 25.242 20.1298 25.2512 20.264 25.4309C20.3532 25.5504 20.5426 25.648 20.6847 25.648C20.8713 25.648 20.9668 25.7541 21.0279 26.0292C21.0745 26.2388 21.0789 26.4435 21.0378 26.4841C20.9968 26.5248 20.9632 26.4892 20.9632 26.4052C20.9632 26.298 20.7286 26.259 20.1789 26.2745C19.1251 26.3044 19.081 26.2967 19.081 26.0823C19.081 25.9682 18.9637 25.8962 18.7776 25.8962C18.3667 25.8962 18.0636 25.7704 18.1481 25.635C18.2424 25.4842 18.7965 25.4939 18.8928 25.648C19.0367 25.8783 19.2247 25.776 19.1404 25.5133C19.0662 25.2822 19.0855 25.2694 19.3201 25.3935C19.4646 25.4701 19.5829 25.4839 19.5829 25.4242C19.5829 25.3645 19.438 25.2503 19.2607 25.1704C19.0012 25.0535 18.886 25.0616 18.6682 25.2126C18.2966 25.47 18.2341 25.4502 18.2341 25.0755C18.2341 24.8972 18.1633 24.7079 18.0769 24.6551C17.9891 24.6015 17.9622 24.4908 18.0159 24.4049C18.079 24.3039 18.0521 24.2723 17.9378 24.3128C17.842 24.3468 17.6648 24.2896 17.544 24.1857C17.4047 24.0657 17.3244 24.0488 17.3244 24.1397C17.3244 24.2185 17.2679 24.2831 17.1989 24.2831C17.1299 24.2831 17.0734 24.1925 17.0734 24.0818C17.0734 23.9154 17.0402 23.9077 16.8822 24.0374C16.7771 24.1237 16.6563 24.1601 16.6141 24.1183C16.4522 23.9583 15.8465 24.5357 15.7922 24.9018C15.7616 25.1075 15.7867 25.2758 15.8478 25.2758C15.9089 25.2758 15.9226 25.3341 15.878 25.4053C15.8335 25.4765 15.8632 25.6136 15.9442 25.7101C16.0251 25.8065 16.0503 25.9508 16.0002 26.0309C15.9433 26.122 15.9744 26.1549 16.0836 26.1187C16.1951 26.0816 16.2593 25.8695 16.262 25.5299C16.2664 24.9482 16.6207 24.5312 17.1106 24.5312C17.4555 24.5312 17.9518 25.004 17.9518 25.3327C17.9518 25.6309 17.2674 26.1061 17.1374 25.8982C17.094 25.8288 16.9914 25.7738 16.9092 25.7761C16.827 25.7782 16.8612 25.8561 16.9853 25.9492C17.1572 26.0781 17.2946 26.087 17.5628 25.987C17.7623 25.9124 18.0179 25.8995 18.1529 25.957C18.3969 26.0609 18.5193 26.0925 18.8061 26.1255C18.8965 26.1358 18.9345 26.2018 18.8906 26.2721C18.802 26.4138 17.2827 26.3609 16.8995 26.2026C16.5787 26.07 16.3275 26.2508 15.9305 26.9002C15.4845 27.6293 15.373 28.0057 15.6026 28.0057C15.843 28.0057 16.126 27.6711 16.3897 27.075C16.5473 26.7186 16.6244 26.6403 16.6626 26.7972C16.692 26.9173 16.4817 27.3626 16.1954 27.7867C15.6833 28.5448 15.6652 28.6355 15.8859 29.3396C15.9706 29.6097 15.9464 29.6188 15.1432 29.6188C14.6865 29.6188 14.313 29.6733 14.313 29.7398C14.313 29.8079 14.4766 29.8284 14.6875 29.7867C14.9626 29.7323 15.0823 29.765 15.1385 29.9099C15.1995 30.067 15.331 30.0914 15.7847 30.0299C16.2301 29.9696 16.3422 29.9891 16.2982 30.1194C16.2646 30.219 16.0183 30.2974 15.6853 30.3145C15.3791 30.3302 15.0217 30.3616 14.8912 30.3843C14.5845 30.4374 14.477 30.1519 14.7762 30.0794C14.9011 30.0492 14.8555 30.042 14.6752 30.0634C14.0372 30.1388 13.2036 28.8557 13.0907 27.6237C13.0065 26.7051 13.1325 26.0086 13.3669 26.0976C13.4629 26.1341 13.6014 26.0517 13.6759 25.9139C13.8535 25.586 13.8477 25.5495 13.6108 25.502C13.2902 25.4378 14.1381 24.2952 14.8607 23.8176C15.6968 23.2649 16.0867 23.1689 17.3244 23.2102C18.1397 23.2375 18.5215 23.3127 18.9453 23.5295ZM9.70138 25.0479C9.66825 25.1733 9.63249 25.2758 9.62208 25.2758C9.61154 25.2758 8.91239 24.9426 8.06832 24.5353C6.68771 23.8692 6.37001 23.6176 6.60979 23.3803C6.6517 23.3389 7.37808 23.6459 8.22378 24.0624C9.47966 24.6811 9.75057 24.8618 9.70138 25.0479ZM14.5639 23.6137C14.5639 23.6551 14.4282 23.7945 14.2623 23.9236C13.8 24.2832 13.1955 25.2594 12.9789 25.9961C12.8718 26.3608 12.7685 26.641 12.7494 26.6189C12.6398 26.4917 11.0506 23.685 11.0506 23.6186C11.0506 23.5745 11.8411 23.5385 12.8073 23.5385C13.7734 23.5385 14.5639 23.5724 14.5639 23.6137ZM23.2217 23.6026C23.2217 23.7867 21.492 26.6261 21.422 26.5568C21.3767 26.5119 21.3391 26.3589 21.3383 26.2167C21.3362 25.7716 20.7714 24.7397 20.2289 24.1899C19.9427 23.8998 19.7084 23.6345 19.7084 23.6005C19.7084 23.5663 20.4989 23.5385 21.4651 23.5385C22.4312 23.5385 23.2217 23.5673 23.2217 23.6026ZM11.722 25.4172C12.4612 26.7293 12.6804 27.2219 12.6004 27.3903C12.2975 28.0268 10.7258 30.7276 10.6561 30.7314C10.5044 30.7393 9.93376 29.1516 9.78532 28.3084C9.70251 27.8378 9.67039 27.0799 9.71267 26.5886C9.80891 25.4673 10.3877 23.657 10.6472 23.6656C10.6965 23.6672 11.1802 24.4554 11.722 25.4172ZM23.9654 24.2293C24.2742 24.9199 24.6027 26.4388 24.5998 27.1629C24.5957 28.1717 23.886 30.7439 23.615 30.7321C23.489 30.7268 21.6533 27.3774 21.6533 27.1529C21.6533 26.9193 23.4914 23.6637 23.6236 23.663C23.6722 23.6629 23.8259 23.9176 23.9654 24.2293ZM27.9898 24.5043C27.9898 24.6768 27.6652 24.8308 26.5154 25.2039C25.7045 25.4671 24.9656 25.7104 24.8732 25.7447C24.7569 25.7879 24.7184 25.7189 24.7477 25.5202C24.7839 25.2754 24.9927 25.1651 26.1704 24.768C27.7651 24.2303 27.9898 24.1977 27.9898 24.5043ZM7.91787 25.3792C9.09646 25.7689 9.36372 25.9023 9.39585 26.1164L9.43499 26.378L8.51752 26.0947C6.21329 25.383 6.15708 25.3599 6.15708 25.129C6.15708 24.8194 6.2759 24.8364 7.91787 25.3792ZM16.8671 25.2136C16.886 25.5377 17.0018 25.6148 17.1393 25.3948C17.1837 25.3238 17.3349 25.3017 17.4752 25.3457C17.6581 25.4032 17.7135 25.3783 17.6704 25.2578C17.6374 25.1653 17.4896 25.1029 17.3419 25.1192C17.1943 25.1354 17.0734 25.0936 17.0734 25.0261C17.0734 24.9587 17.023 24.9035 16.9613 24.9035C16.8995 24.9035 16.8571 25.0431 16.8671 25.2136ZM14.2502 25.2132L13.8738 25.3788L14.4934 25.6431C14.8342 25.7885 15.2294 25.8845 15.3717 25.8566C15.5653 25.8186 15.5436 25.8016 15.2854 25.789C15.0297 25.7764 14.9403 25.7078 14.9403 25.5239C14.9403 25.2404 14.9877 25.2256 15.3251 25.4042C15.4586 25.4749 15.5677 25.5 15.5677 25.4599C15.5677 25.3948 14.7489 25.0129 14.662 25.0376C14.6426 25.0432 14.4573 25.1223 14.2502 25.2132ZM13.7199 26.2352C13.62 26.4926 13.7808 26.5731 14.0936 26.4224C14.2487 26.3477 14.4604 26.2631 14.5639 26.2343C14.6674 26.2055 14.5346 26.1562 14.2686 26.1246C13.9347 26.0849 13.7649 26.1191 13.7199 26.2352ZM28.2407 26.2685C28.2407 26.4049 28.2143 26.5166 28.1818 26.5166C28.0526 26.5166 25.3992 26.9002 25.1352 26.9569C24.9154 27.0043 24.8529 26.9622 24.8529 26.7672C24.8529 26.6294 24.8671 26.513 24.8843 26.5086C25.0805 26.4582 27.7476 26.0486 27.9584 26.0364C28.1626 26.0247 28.2407 26.089 28.2407 26.2685ZM14.8776 26.3925C14.8349 26.4608 14.9196 26.5166 15.0658 26.5166C15.212 26.5166 15.2967 26.4608 15.254 26.3925C15.2114 26.3243 15.1267 26.2685 15.0658 26.2685C15.005 26.2685 14.9203 26.3243 14.8776 26.3925ZM16.9965 26.5478C17.0916 26.6969 17.0526 26.9246 16.8486 27.4114C16.6962 27.775 16.5715 28.1412 16.5715 28.2252C16.5715 28.4676 16.898 28.4034 17.2833 28.0848C17.5389 27.8736 17.7082 27.8193 17.889 27.89C18.027 27.944 18.2953 27.9921 18.485 27.997C18.8293 28.0057 18.9643 28.2813 18.7026 28.4412C18.6325 28.4841 18.6036 28.5648 18.6385 28.6206C18.6734 28.6764 18.6178 28.791 18.515 28.8754C18.2194 29.118 18.2978 29.2816 18.6071 29.0675C18.7604 28.9613 18.9721 28.876 19.0776 28.878C19.217 28.8808 19.2009 28.9208 19.0183 29.0252C18.5464 29.2946 18.2558 29.6862 18.6342 29.5425C18.7336 29.5048 18.917 29.5319 19.042 29.6029C19.2124 29.6997 19.0262 29.7282 18.2968 29.7171C17.762 29.7089 17.3244 29.653 17.3244 29.593C17.3244 29.5329 17.395 29.4928 17.4812 29.504C17.7663 29.5406 17.9518 29.4962 17.9518 29.3913C17.9518 29.3345 17.8248 29.302 17.6694 29.319C17.5141 29.336 17.3447 29.3546 17.293 29.3603C17.2413 29.366 17.1912 29.4962 17.1818 29.6498L17.1648 29.929L17.1103 29.6498C17.0805 29.4962 17.0176 29.366 16.9705 29.3603C16.4403 29.296 16.3206 29.3067 16.3206 29.4179C16.3206 29.4894 16.2265 29.4549 16.1114 29.3411C15.7635 28.997 15.8612 28.47 16.429 27.6292C16.9644 26.8363 17.0157 26.6077 16.6729 26.5419C16.5586 26.52 16.4182 26.656 16.3247 26.8791C16.1629 27.2655 15.8187 27.6328 15.8187 27.419C15.8187 27.1959 16.5834 26.2517 16.7261 26.2987C16.8038 26.3243 16.9254 26.4365 16.9965 26.5478ZM7.58511 26.7068C9.40752 26.9798 9.41944 26.9836 9.41944 27.2734C9.41944 27.4854 9.36046 27.5179 9.07438 27.4639C8.88453 27.428 8.13645 27.3061 7.41183 27.1929C6.06523 26.9827 5.8139 26.8888 5.96209 26.6515C6.06925 26.48 6.07188 26.4801 7.58511 26.7068ZM20.822 26.5942C21.1944 26.6679 21.2141 26.701 21.2141 27.2546C21.2141 28.0448 20.929 28.8133 20.3605 29.5567L19.8858 30.1772L18.8561 30.1764C18.1969 30.1759 17.8263 30.2242 17.8263 30.3107C17.8263 30.3982 18.0638 30.4263 18.5002 30.3905C18.8765 30.3596 19.2083 30.3899 19.2514 30.4589C19.2938 30.5267 19.036 30.7068 18.6784 30.8589C17.9083 31.1866 16.3059 31.2714 16.0411 30.9986C15.909 30.8625 15.9769 30.8495 16.4335 30.9229C16.9242 31.002 16.9764 30.988 16.9027 30.7979C16.84 30.6365 16.8693 30.6027 17.0209 30.6603C17.1569 30.7119 17.2441 30.6537 17.2897 30.4809C17.3295 30.3303 17.4274 30.2518 17.5275 30.2897C17.6213 30.3253 17.6844 30.2866 17.6679 30.2037C17.6515 30.1208 17.7368 30.0609 17.8576 30.0703C17.9785 30.0798 18.0772 30.032 18.0772 29.964C18.0772 29.896 18.1698 29.8755 18.2831 29.9186C18.3963 29.9615 18.8326 29.9299 19.2526 29.8481C19.6725 29.7665 19.9418 29.675 19.8511 29.6451C19.7424 29.6094 19.7831 29.5425 19.9696 29.4497C20.4162 29.2275 20.3876 29.0356 19.8944 28.9441L19.442 28.8601L19.7634 28.3177C19.9402 28.0194 20.0848 27.7574 20.0848 27.7354C20.0848 27.7134 19.4902 27.7013 18.7633 27.7086C17.5638 27.7204 17.4133 27.7482 17.1322 28.0094C16.8703 28.2527 16.8225 28.2644 16.8225 28.0853C16.8225 27.9689 16.9072 27.6731 17.0107 27.4282C17.1142 27.1831 17.1989 26.8778 17.1989 26.7497C17.1989 26.5337 17.3176 26.5166 18.8144 26.5166C19.7029 26.5166 20.6063 26.5515 20.822 26.5942ZM12.9327 28.0479C12.9327 28.5404 13.6738 29.8377 14.2186 30.2989L14.7346 30.7356H12.8819H11.0292L11.3302 30.2082C12.7994 27.6348 12.9327 27.455 12.9327 28.0479ZM21.9862 28.533C22.2331 28.9596 22.6176 29.6297 22.8404 30.0221L23.2457 30.7356H21.4176H19.5896L20.1587 30.1726C20.7477 29.5903 21.3362 28.5246 21.3383 28.0367C21.3403 27.5812 21.5105 27.7116 21.9862 28.533ZM9.42383 28.197C9.72384 28.5545 9.3828 28.6348 7.71686 28.5989C6.30552 28.5685 6.09208 28.5368 6.05632 28.3519C6.02044 28.167 6.15783 28.1343 7.12123 28.0982C7.72966 28.0754 8.46043 28.0452 8.74538 28.0312C9.08467 28.0145 9.31868 28.0717 9.42383 28.197ZM19.4191 28.3199C19.2255 28.4882 18.9996 28.6244 18.9172 28.6221C18.8347 28.62 18.9258 28.4804 19.1194 28.3119C19.313 28.1435 19.5389 28.0074 19.6213 28.0096C19.7038 28.0117 19.6127 28.1513 19.4191 28.3199ZM28.217 28.2228C28.1797 28.415 27.9769 28.4439 26.4512 28.4745C25.5031 28.4934 24.7274 28.4841 24.7274 28.4536C24.7274 28.4231 24.7617 28.3099 24.8036 28.202C24.8678 28.0364 25.1444 28.0057 26.5694 28.0057C28.1111 28.0057 28.2554 28.0246 28.217 28.2228ZM17.7008 28.2612C17.7008 28.3334 17.7573 28.3581 17.8263 28.3159C17.8953 28.2737 17.9518 28.2146 17.9518 28.1845C17.9518 28.1543 17.8953 28.1298 17.8263 28.1298C17.7573 28.1298 17.7008 28.1889 17.7008 28.2612ZM18.0318 28.3159C17.9922 28.4183 18.0144 28.502 18.0811 28.502C18.148 28.502 18.2027 28.4183 18.2027 28.3159C18.2027 28.2135 18.1805 28.1298 18.1534 28.1298C18.1263 28.1298 18.0716 28.2135 18.0318 28.3159ZM18.3909 28.2538C18.3483 28.3221 18.3732 28.3779 18.4463 28.3779C18.5193 28.3779 18.5791 28.3221 18.5791 28.2538C18.5791 28.1856 18.5543 28.1298 18.5238 28.1298C18.4933 28.1298 18.4336 28.1856 18.3909 28.2538ZM17.5416 28.7403C17.487 28.9466 17.5033 28.9951 17.5964 28.9031C17.6694 28.8308 17.7043 28.6987 17.6742 28.6091C17.6428 28.5162 17.586 28.5725 17.5416 28.7403ZM13.9993 29.081C13.7787 29.2558 13.7762 29.2704 13.9782 29.2012C14.1046 29.1579 14.3196 29.1224 14.4561 29.1224C14.5925 29.1224 14.6693 29.0666 14.6267 28.9984C14.516 28.8213 14.2893 28.8512 13.9993 29.081ZM9.72271 29.3263C9.76612 29.4385 9.78633 29.5445 9.7675 29.562C9.67628 29.6461 6.48557 30.1005 6.39109 30.0428C6.33136 30.0063 6.28255 29.901 6.28255 29.8088C6.28255 29.6978 6.56889 29.5958 7.12951 29.507C7.5954 29.4332 8.25879 29.3226 8.60385 29.2614C9.53199 29.0969 9.63601 29.103 9.72271 29.3263ZM15.1252 29.252C15.0844 29.3173 15.1673 29.3706 15.3094 29.3706C15.6124 29.3706 15.6429 29.3016 15.3835 29.2032C15.2823 29.1648 15.166 29.1867 15.1252 29.252ZM19.332 29.2465C19.332 29.3148 19.2439 29.3706 19.1364 29.3706C19.0288 29.3706 18.9756 29.3148 19.0183 29.2465C19.061 29.1783 19.1489 29.1224 19.2139 29.1224C19.2789 29.1224 19.332 29.1783 19.332 29.2465ZM26.1656 29.3096C26.9911 29.4114 27.7393 29.4947 27.8282 29.4947C27.917 29.4947 27.9898 29.6064 27.9898 29.7429C27.9898 29.8985 27.9061 29.9911 27.7654 29.9911C27.4044 29.9911 24.5725 29.631 24.5191 29.5782C24.4778 29.5374 24.5948 29.1206 24.6467 29.1234C24.6567 29.1239 25.3401 29.2077 26.1656 29.3096ZM14.1248 29.3706C14.0821 29.4389 14.1037 29.4947 14.1727 29.4947C14.2417 29.4947 14.333 29.4389 14.3757 29.3706C14.4184 29.3024 14.3968 29.2465 14.3278 29.2465C14.2588 29.2465 14.1674 29.3024 14.1248 29.3706ZM16.948 29.6265C16.948 29.6905 16.835 29.7429 16.697 29.7429C16.559 29.7429 16.4461 29.699 16.4461 29.6452C16.4461 29.5915 16.559 29.5391 16.697 29.5288C16.835 29.5185 16.948 29.5625 16.948 29.6265ZM17.1591 30.3866C17.1191 30.4855 17.0894 30.4561 17.0833 30.3116C17.0779 30.1808 17.1076 30.1076 17.1492 30.1488C17.1909 30.19 17.1954 30.297 17.1591 30.3866ZM10.2881 30.7168C10.4236 30.9795 10.7332 31.4519 10.976 31.7665L11.4175 32.3384L10.9574 32.7135L10.4971 33.0886L10.1976 32.8117C9.90277 32.5392 9.90214 32.5342 10.1606 32.4951C10.5426 32.4375 10.4825 32.1886 10.0213 31.9192L9.61944 31.6845L10.0345 31.5462C10.391 31.4275 10.4227 31.386 10.2594 31.2519C10.1548 31.166 9.87202 31.0642 9.63099 31.0254C9.27137 30.9677 9.16736 31.0022 9.05079 31.2176C8.97262 31.362 8.7952 31.4801 8.65642 31.4801C8.23595 31.4801 7.76668 32.0447 7.81185 32.4964C7.85526 32.9304 8.16468 33.1429 8.16468 32.7386C8.16468 32.6005 8.22115 32.4529 8.29016 32.4107C8.36256 32.3664 8.41563 32.483 8.41563 32.686C8.41563 33.133 8.73459 33.5896 9.04702 33.5896C9.24753 33.5896 9.27514 33.5274 9.2124 33.2173C9.10901 32.7062 9.25042 32.7499 9.48318 33.3008C9.67101 33.7453 9.66737 33.7653 9.33587 34.1074C9.14904 34.3003 8.93397 34.4582 8.85806 34.4582C8.62279 34.4582 7.03541 32.1539 7.03541 31.8123C7.03541 31.7523 9.81493 30.2899 10.0129 30.2457C10.0287 30.2421 10.1526 30.4541 10.2881 30.7168ZM16.948 30.2939C16.948 30.3241 16.8915 30.3832 16.8225 30.4254C16.7535 30.4675 16.697 30.4429 16.697 30.3706C16.697 30.2984 16.7535 30.2392 16.8225 30.2392C16.8915 30.2392 16.948 30.2638 16.948 30.2939ZM27.2369 31.7994C27.2369 32.0072 25.7409 34.3347 25.608 34.3335C25.5722 34.3331 25.3799 34.2038 25.1806 34.0461C24.835 33.7725 24.8253 33.7382 24.9711 33.3011C25.1269 32.834 25.3548 32.7887 25.3548 33.2246C25.3548 33.3571 25.4052 33.4655 25.4668 33.4655C25.6119 33.4655 25.7312 33.1528 25.7312 32.7728C25.7312 32.4085 25.9238 32.3838 26.1368 32.721C26.3818 33.109 26.4841 33.0168 26.4841 32.4081C26.4841 31.9153 26.4422 31.8288 26.139 31.6966C25.9493 31.6139 25.6443 31.3916 25.4613 31.2029C25.0815 30.8111 24.8676 30.7816 24.3447 31.049C23.8539 31.3 23.8738 31.4901 24.3824 31.4081L24.7902 31.3422L24.4482 31.5375C24.0618 31.7584 23.8491 32.0874 23.8491 32.4646C23.8491 32.7331 24.03 32.8093 24.1628 32.5969C24.2054 32.5286 24.3315 32.4728 24.443 32.4728C24.6051 32.4728 24.5866 32.535 24.351 32.783C24.1889 32.9536 24.0238 33.0911 23.9841 33.0885C23.9443 33.086 23.6895 32.8957 23.4176 32.6656L22.9235 32.2473L23.2399 31.8327C23.4139 31.6047 23.7113 31.1545 23.9007 30.8325L24.2448 30.2469L25.7409 30.9886C26.5638 31.3965 27.2369 31.7614 27.2369 31.7994ZM16.5715 30.6115C16.5715 30.6805 16.2369 30.7356 15.8187 30.7356C15.4005 30.7356 15.0658 30.6805 15.0658 30.6115C15.0658 30.5425 15.4005 30.4874 15.8187 30.4874C16.2369 30.4874 16.5715 30.5425 16.5715 30.6115ZM17.3923 30.7045C17.325 30.8785 18.0405 30.9013 18.5791 30.7424C18.8238 30.6702 18.7345 30.6389 18.1725 30.5997C17.6724 30.5648 17.4339 30.5968 17.3923 30.7045ZM15.8814 32.6803C16.3645 33.5355 16.7786 34.2854 16.8015 34.3467C16.8665 34.5198 16.1223 34.4784 15.2721 34.2615C14.0232 33.9428 12.8448 33.2579 11.8348 32.2636C11.3346 31.7711 10.925 31.2956 10.925 31.2069C10.9249 31.0798 11.355 31.0542 12.964 31.0855L15.0031 31.1252L15.8814 32.6803ZM16.5715 31.3601C17.1152 31.4501 18.1351 31.3508 18.6276 31.1599C18.7652 31.1067 18.844 31.1181 18.8158 31.1874C18.6559 31.5804 17.1603 34.0859 17.0856 34.0859C17.0359 34.0859 16.7202 33.5974 16.3841 33.0002C16.0479 32.403 15.6594 31.7242 15.5209 31.4918L15.2688 31.069L15.6379 31.1679C15.8409 31.2222 16.261 31.3087 16.5715 31.3601ZM23.3472 31.2278C23.3472 31.2938 22.9338 31.7621 22.4283 32.2684C21.7074 32.9908 21.282 33.2963 20.4521 33.6883C19.8705 33.9629 19.0955 34.2485 18.7298 34.3229C18.0536 34.4604 17.3244 34.5025 17.3244 34.4038C17.3244 34.3739 17.7522 33.6201 18.2751 32.7287L19.2258 31.1078H21.2865C22.5301 31.1078 23.3472 31.1555 23.3472 31.2278ZM9.47954 31.4831C9.31266 31.6653 9.28744 31.7714 9.38744 31.8703C9.46335 31.9454 9.49585 32.0825 9.45984 32.1752C9.42395 32.268 9.57716 32.5719 9.80038 32.8506C10.0848 33.2059 10.1666 33.3966 10.0739 33.4883C9.98119 33.58 9.86525 33.4708 9.68595 33.1232C9.33261 32.4384 8.91753 32.3032 8.91753 32.8731C8.91753 33.0136 8.86157 33.0736 8.77826 33.0227C8.6967 32.9729 8.66734 32.7641 8.70761 32.5191C8.77023 32.1374 8.74864 32.1005 8.46306 32.1005C8.05815 32.1005 8.18664 31.8945 8.65504 31.7928C8.85404 31.7496 9.11629 31.6057 9.23762 31.473C9.35908 31.3404 9.5148 31.2319 9.58381 31.2319C9.65282 31.2319 9.60589 31.345 9.47954 31.4831ZM25.3601 31.4899C25.4369 31.6317 25.6647 31.8048 25.8664 31.8743C26.3125 32.0281 26.358 32.2603 25.9206 32.1518C25.7017 32.0974 25.5858 32.1315 25.5339 32.2657C25.4929 32.3709 25.3862 32.4294 25.2966 32.3952C25.1964 32.3573 25.0269 32.5516 24.8567 32.8995C24.5869 33.4506 24.4349 33.576 24.2995 33.3594C24.263 33.3011 24.3727 33.1239 24.5431 32.9655C24.7135 32.8072 24.8529 32.5413 24.8529 32.3746C24.8529 32.117 24.8051 32.0807 24.5342 32.1318C24.3332 32.1699 24.2325 32.1408 24.2615 32.0532C24.2869 31.9769 24.4919 31.8965 24.7171 31.8747C25.0816 31.8393 25.1183 31.8017 25.0501 31.5334C24.9565 31.1647 25.168 31.135 25.3601 31.4899ZM3.67041 34.0838C4.63933 35.3719 6.25382 36.944 7.35737 37.674C7.85915 38.0059 8.34487 38.3044 8.43684 38.3372C8.6184 38.4023 8.61727 38.4046 7.97647 39.2685C7.65814 39.6979 7.4767 39.8097 6.80014 39.9937C6.00362 40.2105 5.9981 40.2102 5.45831 39.927C4.2151 39.2748 2.49094 37.5575 1.02677 35.5129L0.493626 34.7684L0.847215 34.69C1.0417 34.6469 1.46894 34.605 1.79681 34.5969L2.39282 34.5823L2.39985 33.4965L2.40675 32.4107L2.68217 32.7733C2.83361 32.9729 3.2783 33.5625 3.67041 34.0838ZM24.0233 33.4883C24.7211 34.0468 25.3203 34.5273 25.3548 34.5559C25.3893 34.5846 25.0505 34.9348 24.6019 35.3342C20.8689 38.6583 15.2663 39.0965 11.06 36.3937C10.6063 36.1021 9.95936 35.6154 9.62245 35.3121L9.00988 34.7606L10.2732 33.6788C10.9681 33.0837 11.5735 32.5969 11.6186 32.5969C11.6638 32.5969 11.9267 32.7881 12.2027 33.0217C12.8555 33.5742 14.1796 34.2557 15.1286 34.5274C16.1253 34.8129 17.9976 34.8131 19.081 34.5277C20.1079 34.2573 21.3605 33.6113 22.0924 32.9746C22.403 32.7045 22.679 32.481 22.7058 32.4781C22.7325 32.4751 23.3254 32.9298 24.0233 33.4883ZM30.7248 34.6021C30.7732 34.6477 31.2016 34.7158 31.6765 34.7534C32.1514 34.791 32.5592 34.8409 32.5827 34.8641C32.6755 34.9558 30.8043 37.3025 29.9564 38.1579C29.4614 38.6571 28.6448 39.3395 28.1417 39.6743L27.2271 40.2828L26.5733 40.0244C26.2137 39.8824 25.7783 39.7127 25.6057 39.6476C25.3 39.5321 24.7974 39.002 24.6615 38.6517C24.6164 38.5352 24.918 38.2749 25.5704 37.8678C26.8279 37.0828 28.8416 35.0889 29.8113 33.6689L30.562 32.5692L30.5993 33.5443C30.6197 34.0806 30.6762 34.5566 30.7248 34.6021ZM11.678 34.0087C11.678 34.0344 11.7767 34.1322 11.8976 34.2259C12.0966 34.3801 12.101 34.3758 11.945 34.179C11.781 33.9722 11.678 33.9066 11.678 34.0087ZM22.1435 34.2228C22.0123 34.3662 21.524 34.7073 21.0586 34.9808C20.3104 35.4203 20.2212 35.5124 20.2881 35.7762C20.33 35.9413 20.2946 36.1569 20.2089 36.259C20.1014 36.3872 20.0971 36.4436 20.195 36.4436C20.2724 36.4436 20.3375 36.3738 20.3398 36.2884C20.3421 36.2011 20.4242 36.2386 20.528 36.3742C20.7633 36.6818 20.7619 36.5532 20.524 35.9901C20.4205 35.7451 20.3358 35.5303 20.3358 35.5128C20.3358 35.4953 20.5104 35.4094 20.7238 35.3221C21.1849 35.1332 21.3889 35.3168 21.2702 35.8138C21.2096 36.0674 21.2272 36.0909 21.3822 35.9637C21.4834 35.8807 21.5907 35.857 21.6205 35.911C21.6504 35.9651 21.6478 35.9255 21.6146 35.8231C21.5814 35.7208 21.5504 35.5433 21.5455 35.4287C21.5407 35.3141 21.4854 35.2304 21.4225 35.2425C21.1433 35.2967 21.2451 34.9899 21.5691 34.8006C21.9522 34.5769 22.2594 34.703 22.132 35.0317C22.0926 35.1332 22.1475 35.2027 22.2672 35.2027C22.3781 35.2027 22.4689 35.1249 22.4689 35.0298C22.4689 34.7913 22.7797 34.6948 22.9799 34.8711C23.0708 34.9512 22.9954 34.814 22.8124 34.5665C22.6295 34.3191 22.5149 34.0817 22.558 34.0391C22.601 33.9967 22.579 33.9618 22.5093 33.9618C22.4394 33.9618 22.2749 34.0792 22.1435 34.2228ZM22.5522 34.4044C22.6568 34.674 22.3913 34.9275 22.2012 34.7395C22.0406 34.5806 22.1401 34.21 22.3434 34.21C22.4168 34.21 22.5106 34.2975 22.5522 34.4044ZM11.427 34.3828C11.427 34.4097 11.5117 34.4638 11.6153 34.5031C11.7188 34.5423 11.8035 34.5203 11.8035 34.4543C11.8035 34.3882 11.7188 34.3341 11.6153 34.3341C11.5117 34.3341 11.427 34.356 11.427 34.3828ZM11.9953 34.7024C11.8178 34.8963 11.7171 34.9205 11.5053 34.8196C11.2604 34.703 11.2568 34.7071 11.4605 34.8699C11.6037 34.9843 11.6516 35.1264 11.5956 35.2708C11.5479 35.3938 11.7021 35.2904 11.9385 35.0411C12.3256 34.6326 12.3911 34.6051 12.6002 34.7629C12.8549 34.955 12.7618 35.2596 12.4809 35.1531C12.3746 35.1127 12.3054 35.1665 12.3054 35.2893C12.3054 35.4009 12.3431 35.4548 12.3893 35.4092C12.4355 35.3636 12.5748 35.4171 12.699 35.5283C12.8769 35.6875 12.8964 35.7827 12.7907 35.9779C12.6937 36.157 12.6951 36.202 12.7956 36.1404C12.872 36.0938 13.0203 35.8916 13.1251 35.6912C13.2299 35.4907 13.3739 35.3268 13.4453 35.3268C13.5166 35.3268 13.5346 35.3913 13.4855 35.4701C13.4295 35.5596 13.4511 35.5795 13.5428 35.5235C13.7181 35.4164 13.632 35.2495 13.3144 35.0815C13.1221 34.9796 13.0932 34.9982 13.1442 35.1908C13.2174 35.4677 12.9667 35.6582 12.7765 35.4701C12.6812 35.3758 12.6916 35.2785 12.8127 35.1342C12.9601 34.9585 12.9417 34.8997 12.6756 34.6974C12.2906 34.4047 12.2675 34.4049 11.9953 34.7024ZM14.0885 34.8799C14.1775 34.9755 14.2701 35.035 14.2942 35.0123C14.3686 34.9424 14.18 34.7063 14.0497 34.7063C13.982 34.7063 13.9994 34.7845 14.0885 34.8799ZM13.6856 34.8773C13.6856 34.903 13.7843 35.0008 13.9052 35.0945C14.1042 35.2487 14.1086 35.2444 13.9526 35.0476C13.7886 34.8409 13.6856 34.7752 13.6856 34.8773ZM14.1383 35.6273C14.2628 35.9478 13.9445 36.3499 13.6156 36.2877C13.4512 36.2567 13.3466 36.279 13.3831 36.3373C13.4196 36.3958 13.5261 36.4436 13.6198 36.4436C13.7135 36.4436 13.8165 36.5134 13.8486 36.5987C13.8807 36.684 14.0195 36.5025 14.1568 36.1954C14.4024 35.6462 14.4096 35.4509 14.184 35.4509C14.1212 35.4509 14.1007 35.5303 14.1383 35.6273ZM20.8476 35.7714C20.8536 35.9159 20.8834 35.9453 20.9234 35.8464C20.9596 35.7569 20.9551 35.6498 20.9135 35.6086C20.8718 35.5674 20.8422 35.6406 20.8476 35.7714ZM14.6659 35.7838C14.7564 35.8196 14.8647 35.8152 14.9063 35.774C14.948 35.7328 14.874 35.7035 14.7417 35.7088C14.5955 35.7148 14.5658 35.7442 14.6659 35.7838ZM15.1642 35.928C15.3786 36.0626 15.243 36.3804 14.9017 36.5436C14.6786 36.65 14.6682 36.6765 14.8462 36.6833C14.9671 36.688 15.0696 36.7895 15.0742 36.9089C15.0789 37.0283 15.1627 36.8748 15.2606 36.5676C15.4877 35.8546 15.486 35.8228 15.2227 35.825C15.0612 35.8265 15.0457 35.8536 15.1642 35.928ZM19.0572 36.2574C19.116 36.7563 19.1159 36.7561 19.514 36.4982C19.8336 36.2911 20.0308 35.9472 19.83 35.9472C19.7631 35.9472 19.7084 36.025 19.7084 36.1201C19.7084 36.4465 19.3394 36.4537 19.2569 36.129C19.1404 35.6699 18.9986 35.7611 19.0572 36.2574ZM4.17131 36.2343C3.83403 36.5895 3.83052 36.7164 4.14947 37.0019C4.2875 37.1254 4.40042 37.2737 4.40042 37.3314C4.40042 37.5025 4.123 37.451 3.88171 37.2351C3.75812 37.1244 3.56815 37.0676 3.45961 37.1088C3.28156 37.1764 3.28118 37.2119 3.45585 37.4756C3.75774 37.9312 4.2353 38.1408 4.54108 37.952C4.77133 37.8098 4.78049 37.8181 4.65301 38.0536C4.50143 38.3336 4.57634 38.553 4.82353 38.553C4.9101 38.553 5.14211 38.3865 5.33923 38.1831C5.66572 37.8461 5.68366 37.7826 5.54137 37.4696C5.41464 37.1911 5.41527 37.1553 5.54526 37.2811C5.78341 37.5118 6.0316 37.4689 6.0316 37.1971C6.0316 36.9596 5.48968 36.4436 5.24036 36.4436C5.16883 36.4436 5.00672 36.5362 4.88012 36.6497C4.5727 36.9248 4.42615 36.7582 4.70621 36.4521C5.14675 35.9708 4.62402 35.758 4.17131 36.2343ZM18.1713 36.0294C18.3879 36.1158 18.3683 36.4017 18.14 36.4885C18.0365 36.5277 17.9535 36.6593 17.9555 36.7809C17.9592 36.9904 17.9661 36.9905 18.0873 36.7848C18.1577 36.6654 18.291 36.5676 18.3839 36.5676C18.485 36.5676 18.5454 36.4434 18.5345 36.2576C18.5214 36.0325 18.4476 35.9501 18.2654 35.9571C18.1274 35.9625 18.0851 35.995 18.1713 36.0294ZM28.0575 36.2872C27.6667 36.7041 27.6583 36.87 28.016 37.1178C28.219 37.2584 28.256 37.3467 28.154 37.4475C28.0521 37.5483 27.9444 37.5154 27.7514 37.3246C27.1871 36.7666 26.9619 37.1351 27.4982 37.739C27.9396 38.2362 28.0604 38.2684 28.3877 37.9754C28.5139 37.8625 28.6172 37.8312 28.6172 37.906C28.6172 37.9809 28.5607 38.0765 28.4917 38.1187C28.4227 38.1609 28.3662 38.2758 28.3662 38.3742C28.3662 38.6746 28.801 38.5738 29.1764 38.1864C29.5287 37.8227 29.5297 37.8167 29.3059 37.4729C29.0822 37.1291 29.0824 37.1279 29.3291 37.3432C29.466 37.4626 29.6442 37.5603 29.725 37.5603C30.0123 37.5603 29.8658 37.081 29.4804 36.7602C29.1079 36.4503 29.074 36.4442 28.7794 36.6351C28.4233 36.8658 28.1914 36.7528 28.5254 36.5112C28.6578 36.4155 28.7155 36.2698 28.6686 36.1491C28.5587 35.8657 28.4243 35.8961 28.0575 36.2872ZM14.5639 36.1915C14.5639 36.2575 14.6486 36.2795 14.7521 36.2403C14.8557 36.201 14.9403 36.1469 14.9403 36.1201C14.9403 36.0933 14.8557 36.0713 14.7521 36.0713C14.6486 36.0713 14.5639 36.1254 14.5639 36.1915ZM16.7284 36.1601C17.1232 36.2193 17.1934 36.5554 16.8763 36.869C16.7064 37.0369 16.7049 37.064 16.8658 37.064C16.9685 37.064 17.081 37.1338 17.1158 37.2191C17.1798 37.3762 17.2452 36.8043 17.2069 36.4213C17.193 36.2815 17.3015 36.1959 17.5376 36.1608C17.7309 36.132 17.5502 36.1085 17.1362 36.1085C16.7221 36.1085 16.5387 36.1317 16.7284 36.1601ZM16.5036 36.576C16.3686 36.792 16.5223 36.8378 16.6945 36.6327C16.7935 36.5148 16.803 36.4436 16.7197 36.4436C16.6464 36.4436 16.5491 36.5031 16.5036 36.576ZM18.3909 37.1881C18.3483 37.2563 18.3698 37.3122 18.4389 37.3122C18.5079 37.3122 18.5992 37.2563 18.6419 37.1881C18.6845 37.1198 18.6629 37.064 18.5939 37.064C18.5249 37.064 18.4336 37.1198 18.3909 37.1881ZM9.04301 38.9904C9.04301 39.2148 8.94903 39.339 8.71188 39.4282C8.25904 39.5985 8.21412 39.5035 8.53596 39.0566C8.8681 38.5952 9.04301 38.5724 9.04301 38.9904ZM20.9451 38.9965C22.8827 39.2808 25.5095 39.9779 26.4021 40.4449L27.1742 40.8486L27.393 41.7793C27.5133 42.2911 27.6871 43.0309 27.7791 43.4234C27.8712 43.8159 27.895 44.1369 27.8323 44.1369C27.7696 44.1369 27.3135 43.9602 26.8188 43.7442C23.4118 42.2564 19.2089 41.4208 15.8814 41.5696C12.0887 41.7392 8.92795 42.4748 5.54175 43.976C5.33296 44.0686 5.38804 43.621 5.80838 41.8072L6.07514 40.6563L7.27682 40.2896C9.56662 39.5906 12.3869 39.0275 14.7106 38.8052C16.2477 38.6581 19.2711 38.7509 20.9451 38.9965ZM24.4587 39.0674C24.6076 39.303 24.6027 39.3243 24.4159 39.2535C24.2999 39.2094 24.1814 39.1735 24.1525 39.1735C24.1236 39.1735 24.1 39.0897 24.1 38.9873C24.1 38.7212 24.263 38.7576 24.4587 39.0674ZM15.0949 39.7939C15.0949 40.0328 15.1208 40.1304 15.1523 40.011C15.1839 39.8917 15.1839 39.6961 15.1523 39.5767C15.1208 39.4574 15.0949 39.555 15.0949 39.7939ZM15.6477 39.5182C15.6145 39.5713 15.6957 39.7527 15.8281 39.9215L16.0687 40.2282L15.9315 39.8249C15.7877 39.4029 15.7472 39.359 15.6477 39.5182ZM16.5822 39.5457C16.5934 39.8437 16.7732 40.2225 16.8433 40.0959C16.8787 40.0321 16.8328 39.8404 16.7414 39.6698C16.6499 39.4992 16.5783 39.4434 16.5822 39.5457ZM17.3535 39.7939C17.3535 40.0328 17.3793 40.1304 17.4108 40.011C17.4425 39.8917 17.4425 39.6961 17.4108 39.5767C17.3793 39.4574 17.3535 39.555 17.3535 39.7939ZM13.562 39.8176C13.561 40.0012 13.6166 40.186 13.6856 40.2282C13.8458 40.3261 13.8458 39.915 13.6856 39.6698C13.5905 39.5243 13.5635 39.5564 13.562 39.8176ZM14.1875 39.8279C14.1875 40.006 14.2462 40.1874 14.318 40.2313C14.4036 40.2835 14.4191 40.19 14.363 39.9594C14.2476 39.4839 14.1875 39.439 14.1875 39.8279ZM14.6932 39.8497C14.6904 40.1166 14.7269 40.1787 14.8279 40.0788C14.9272 39.9806 14.9282 39.877 14.8317 39.7127C14.7136 39.512 14.6965 39.5288 14.6932 39.8497ZM17.7048 39.63C17.7116 39.8044 18.0772 40.2236 18.0772 40.057C18.0772 39.9707 17.9925 39.8165 17.889 39.7141C17.7855 39.6117 17.7026 39.5739 17.7048 39.63ZM18.2974 39.8559C18.2644 40.0266 18.2861 40.1662 18.3456 40.1662C18.405 40.1662 18.4537 40.0266 18.4537 39.8559C18.4537 39.6853 18.4319 39.5457 18.4056 39.5457C18.3791 39.5457 18.3304 39.6853 18.2974 39.8559ZM18.7976 39.711C18.652 40.0666 18.6783 40.3659 18.8407 40.2052C18.9155 40.1313 18.9574 39.9386 18.9337 39.7771C18.8957 39.5188 18.8794 39.5109 18.7976 39.711ZM12.8566 39.8661C12.8985 39.9741 12.9373 40.1555 12.9427 40.2694C12.9483 40.3868 12.9789 40.4123 13.0135 40.3282C13.0471 40.2468 13.1696 40.2138 13.286 40.255C13.4374 40.3087 13.4111 40.2363 13.1932 39.9999C12.846 39.6232 12.747 39.5838 12.8566 39.8661ZM19.2153 39.949C19.2105 40.1366 19.263 40.2902 19.332 40.2902C19.4793 40.2902 19.4793 40.1948 19.332 39.8559C19.2364 39.6361 19.2232 39.6466 19.2153 39.949ZM19.6322 39.8661C19.6742 39.9741 19.7084 40.1528 19.7084 40.2632C19.7084 40.3925 19.7516 40.4213 19.8297 40.344C19.9749 40.2004 19.8572 39.6698 19.6803 39.6698C19.612 39.6698 19.5903 39.7582 19.6322 39.8661ZM11.9703 39.9698C12.0166 40.089 12.0544 40.2657 12.0544 40.3625C12.0544 40.4592 12.1031 40.5384 12.1625 40.5384C12.3079 40.5384 12.1844 39.9354 12.0182 39.8337C11.9351 39.783 11.9174 39.8335 11.9703 39.9698ZM20.5629 39.8589C20.4606 39.9599 20.6023 40.5384 20.7293 40.5384C20.7915 40.5384 20.8052 40.3848 20.7596 40.1972C20.6623 39.7958 20.6493 39.7734 20.5629 39.8589ZM11.178 40.1278C11.1791 40.2513 11.2347 40.436 11.3016 40.5384C11.3967 40.684 11.4237 40.6518 11.4252 40.3906C11.4262 40.207 11.3706 40.0222 11.3016 39.98C11.2326 39.9378 11.177 40.0043 11.178 40.1278ZM11.6279 40.2488C11.7434 40.7243 11.8035 40.7692 11.8035 40.3803C11.8035 40.2023 11.7447 40.0209 11.673 39.9769C11.5874 39.9247 11.5718 40.0182 11.6279 40.2488ZM21.4337 39.9896C21.382 40.0412 21.3441 40.2277 21.3495 40.404C21.3549 40.5802 21.3879 40.6548 21.4227 40.5694C21.4575 40.4842 21.536 40.4143 21.5971 40.4143C21.6582 40.4143 21.6721 40.5073 21.6281 40.6208C21.5741 40.7597 21.5959 40.7979 21.6947 40.7376C21.7755 40.6882 21.8406 40.4976 21.8396 40.3139C21.8382 40.0723 21.807 40.0279 21.7268 40.1531C21.6365 40.2941 21.6077 40.2863 21.5718 40.1109C21.5476 39.9926 21.4854 39.938 21.4337 39.9896ZM10.7496 40.3729C10.865 40.8484 10.9251 40.8933 10.9251 40.5044C10.9251 40.3264 10.8664 40.1449 10.7946 40.101C10.7091 40.0488 10.6935 40.1423 10.7496 40.3729ZM22.107 40.249C22.099 40.3288 22.0559 40.4963 22.0113 40.6213C21.9483 40.7976 21.965 40.8169 22.0858 40.7067C22.1714 40.6286 22.2145 40.4611 22.1815 40.3344C22.1485 40.2077 22.115 40.1694 22.107 40.249ZM10.1723 40.41C10.1723 40.4758 10.2994 40.5956 10.4546 40.6761C10.7354 40.822 10.7357 40.8213 10.4979 40.5565C10.2324 40.2607 10.1723 40.2337 10.1723 40.41ZM22.5592 40.4555C22.4194 40.8071 22.4423 40.9866 22.6061 40.8246C22.6815 40.75 22.7223 40.5852 22.6965 40.4585C22.6513 40.2364 22.6464 40.2363 22.5592 40.4555ZM9.30387 40.6163C9.29346 40.8935 9.61882 41.2512 9.75709 41.1145C9.80138 41.0706 9.77654 41.0348 9.70176 41.0348C9.62697 41.0348 9.50915 40.8811 9.43976 40.6935C9.33261 40.4034 9.31228 40.3919 9.30387 40.6163ZM23.0216 40.6836C22.8163 40.9148 22.8124 40.9419 22.9942 40.8766C23.1318 40.827 23.2256 40.8741 23.262 41.0106C23.2929 41.1262 23.3246 41.0395 23.3326 40.8176C23.3498 40.3404 23.3328 40.3331 23.0216 40.6836ZM23.6865 40.7037C23.5621 41.0236 23.5767 41.3107 23.713 41.2275C23.7761 41.1889 23.8466 41.2117 23.8698 41.2781C23.8929 41.3446 23.9771 41.2612 24.0569 41.0928C24.1402 40.9168 24.1535 40.7573 24.0883 40.7173C24.0258 40.6791 23.9689 40.7489 23.962 40.8723C23.9536 41.0242 23.9212 40.9964 23.8621 40.7866C23.7854 40.5138 23.7641 40.5039 23.6865 40.7037ZM8.66658 40.7779C8.66658 40.8943 9.05794 41.1588 9.23034 41.1588C9.36887 41.1588 9.16234 40.9161 8.91051 40.7829C8.75128 40.6986 8.66658 40.6969 8.66658 40.7779ZM14.2166 41.0348C14.2166 41.2736 14.2425 41.3713 14.2739 41.2519C14.3056 41.1325 14.3056 40.937 14.2739 40.8176C14.2425 40.6982 14.2166 40.7959 14.2166 41.0348ZM14.4484 40.8589C14.4544 41.0035 14.4841 41.0329 14.5241 40.934C14.5604 40.8444 14.5559 40.7373 14.5142 40.6961C14.4726 40.6549 14.443 40.7281 14.4484 40.8589ZM14.8149 40.9727C14.8149 41.1433 14.8636 41.2829 14.9229 41.2829C14.9824 41.2829 15.0041 41.1433 14.9711 40.9727C14.9381 40.8021 14.8894 40.6625 14.8629 40.6625C14.8366 40.6625 14.8149 40.8021 14.8149 40.9727ZM15.6951 40.9151C15.6924 41.3447 16.1248 41.3561 16.1519 40.9271C16.1659 40.7047 16.1409 40.6707 16.0576 40.7986C15.9612 40.9465 15.9256 40.9448 15.8206 40.7866C15.7224 40.6387 15.6966 40.665 15.6951 40.9151ZM17.0734 40.7083C17.0734 40.7573 17.2146 40.948 17.3871 41.1319C17.5596 41.3159 17.7008 41.407 17.7008 41.3343C17.7008 41.2616 17.5596 41.071 17.3871 40.9107C17.2146 40.7504 17.0734 40.6593 17.0734 40.7083ZM17.9809 41.0348C17.9809 41.2736 18.0067 41.3713 18.0382 41.2519C18.0698 41.1325 18.0698 40.937 18.0382 40.8176C18.0067 40.6982 17.9809 40.7959 17.9809 41.0348ZM12.5563 41.1588C12.5563 41.3636 12.603 41.5311 12.6601 41.5311C12.7172 41.5311 12.7389 41.3636 12.7085 41.1588C12.6782 40.9541 12.6315 40.7866 12.6049 40.7866C12.5782 40.7866 12.5563 40.9541 12.5563 41.1588ZM13.067 40.9344C13.0719 41.0237 13.1243 41.2085 13.1837 41.345C13.2799 41.5666 13.2925 41.5574 13.3004 41.2592C13.3052 41.0756 13.2527 40.8908 13.1837 40.8486C13.1147 40.8064 13.0622 40.845 13.067 40.9344ZM13.5689 40.8797C13.5738 40.9309 13.6262 41.0844 13.6856 41.2209C13.7812 41.4408 13.7944 41.4302 13.8023 41.1278C13.8071 40.9402 13.7546 40.7866 13.6856 40.7866C13.6166 40.7866 13.5641 40.8284 13.5689 40.8797ZM18.5937 40.8695C18.5857 40.9493 18.5426 41.1168 18.4979 41.2417C18.435 41.4181 18.4516 41.4373 18.5725 41.3271C18.6581 41.2491 18.7012 41.0815 18.6682 40.9548C18.6352 40.8282 18.6017 40.7898 18.5937 40.8695ZM18.8301 40.98C18.8301 41.0864 18.8874 41.1384 18.9576 41.0956C19.0277 41.0526 19.0527 40.9656 19.0129 40.9021C18.9054 40.73 18.8301 40.762 18.8301 40.98ZM7.66278 40.9921C7.66278 41.0627 7.77571 41.2215 7.91373 41.345C8.05175 41.4684 8.16468 41.5306 8.16468 41.4831C8.16468 41.4356 8.05175 41.2767 7.91373 41.1303C7.77571 40.9838 7.66278 40.9216 7.66278 40.9921ZM11.9317 40.99C11.9302 41.0678 12.04 41.2632 12.1758 41.4243C12.4968 41.8055 12.5006 41.5644 12.1799 41.1588C12.0449 40.9882 11.9332 40.9123 11.9317 40.99ZM19.2841 41.1033C19.2413 41.2137 19.2623 41.2635 19.3334 41.22C19.4016 41.1783 19.4575 41.2313 19.4575 41.3377C19.4575 41.444 19.5061 41.5311 19.5655 41.5311C19.625 41.5311 19.6467 41.3915 19.6137 41.2209C19.5458 40.8701 19.3955 40.8164 19.2841 41.1033ZM19.937 41.2209C19.8561 41.5927 19.8952 41.7599 20.0315 41.6252C20.0713 41.586 20.0845 41.3951 20.0609 41.2012L20.018 40.8486L19.937 41.2209ZM24.4018 41.1878C24.2298 41.3872 24.2216 41.4199 24.3727 41.3045C24.5536 41.1664 24.5902 41.1838 24.638 41.4308C24.6796 41.6468 24.6974 41.618 24.7104 41.314C24.7306 40.8354 24.7124 40.8278 24.4018 41.1878ZM11.1869 41.1588C11.1906 41.2612 11.2422 41.4567 11.3016 41.5932L11.4093 41.8413L11.4162 41.5932C11.4201 41.4567 11.3684 41.2612 11.3016 41.1588C11.1934 40.9934 11.1807 40.9934 11.1869 41.1588ZM7.17079 41.4809C7.17619 41.6791 7.20994 41.7692 7.2457 41.681C7.29564 41.5579 7.3516 41.5543 7.48674 41.6652C7.76191 41.8911 7.69302 41.5966 7.41183 41.345C7.16628 41.1252 7.16113 41.1281 7.17079 41.4809ZM25.1267 41.4691C25.048 41.6397 25.0299 41.7793 25.0864 41.7793C25.1429 41.7793 25.2534 41.6397 25.332 41.4691C25.4106 41.2984 25.4287 41.1588 25.3722 41.1588C25.3158 41.1588 25.2052 41.2984 25.1267 41.4691ZM25.6277 41.5951C25.5414 41.7823 25.4967 41.9609 25.5282 41.9921C25.6133 42.0763 25.88 41.5384 25.8287 41.386C25.8044 41.3138 25.7139 41.4079 25.6277 41.5951ZM6.56839 41.5833C6.68433 41.698 6.74079 41.8794 6.69788 42C6.63928 42.1652 6.65735 42.1813 6.7778 42.0716C6.99651 41.8722 6.89098 41.4809 6.60364 41.4261C6.3808 41.3837 6.37829 41.3952 6.56839 41.5833ZM6.16147 41.6625C6.15909 41.7689 6.24002 41.9643 6.34128 42.0968C6.57717 42.4053 6.57993 42.1853 6.34529 41.7793C6.23036 41.5805 6.16436 41.5386 6.16147 41.6625Z" fill="#5F5F5F"/>
</svg>
