<svg width="44" height="44" viewBox="0 0 44 44" fill="none" xmlns="http://www.w3.org/2000/svg">
<path d="M42.9269 12.4005C42.808 11.181 42.5074 10.0082 42.071 8.86824C41.8141 8.19769 41.5157 7.9863 41.0895 8.15792C40.6923 8.31816 40.6329 8.67844 40.8797 9.32853C41.6627 11.3913 41.9285 13.512 41.6043 15.7067C40.7092 21.7745 35.7005 26.2808 29.6542 26.4126C27.1448 26.4683 24.8228 25.791 22.7049 24.4124C22.2708 24.1294 21.8983 24.1862 21.6874 24.5419C21.4844 24.8852 21.5809 25.2511 22.0262 25.4909C22.9371 25.9808 23.8693 26.4274 24.7936 26.89C24.9136 26.9491 25.0404 26.9923 25.2479 27.0775C24.7375 27.157 24.3247 27.2286 23.9096 27.2855C22.9292 27.4207 22.2438 27.9333 21.8411 28.8618C21.3588 29.9756 20.8427 31.0746 20.3402 32.1793C20.2841 32.3032 20.2224 32.4237 20.154 32.5634C18.9627 31.5338 17.8117 31.7963 16.6687 32.6214C16.58 32.4475 16.515 32.3236 16.4544 32.1986C15.5727 30.3677 14.6932 28.5368 13.8082 26.7081C13.1968 25.4455 12.213 24.784 10.8018 24.801C9.58473 24.8147 8.36761 24.8113 7.1505 24.8124C7.0215 24.8136 6.89249 24.7999 6.70516 24.7897C7.38943 23.8725 8.02435 23.0122 8.67498 22.1632C8.73106 22.0893 8.88923 22.0484 8.98907 22.0643C9.6094 22.1609 10.2286 22.2666 10.8445 22.3894C13.0465 22.8269 13.2237 22.7792 14.8839 21.2813C15.5581 20.6732 16.2368 20.0709 16.9244 19.456C17.0927 19.7947 17.2049 20.1072 17.3866 20.372C18.0697 21.3699 18.7585 22.3644 19.4787 23.3349C19.7401 23.6861 20.1147 23.685 20.3985 23.4293C20.6711 23.1838 20.6801 22.8053 20.4187 22.4803C20.348 22.3928 20.2684 22.3121 20.1944 22.228C19.3037 21.2142 18.5846 20.0902 18.0754 18.8343C18.0226 18.7025 18.0484 18.4752 18.1303 18.3604C18.4209 17.9547 18.5891 17.5262 18.5712 17.0205C18.5353 16.001 18.505 14.9804 18.4803 13.9598C18.4568 12.9813 18.2279 12.7449 17.261 12.7244C17.2239 12.7233 17.1869 12.6949 17.0983 12.6574C17.2239 12.0243 17.3204 11.3811 17.4797 10.7537C19.1702 4.10056 26.0219 0.0511517 32.5641 1.84344C35.3 2.5924 37.5323 4.11874 39.2576 6.402C39.5751 6.82137 39.9419 6.91343 40.2593 6.6759C40.5757 6.44064 40.588 6.03945 40.2773 5.63031C38.2391 2.94927 35.6096 1.1979 32.3375 0.46598C31.7564 0.336417 31.1663 0.244359 30.5797 0.135254H28.2284C28.1365 0.161394 28.0445 0.193216 27.9502 0.21481C26.944 0.440977 25.8929 0.545536 24.9405 0.91263C19.6795 2.93563 16.6395 6.78728 15.8812 12.4574C15.8329 12.8176 15.8958 13.2688 15.7051 13.5177C15.1038 14.2985 14.903 15.1452 14.9916 16.1044C15.0028 16.2317 14.9322 16.417 14.8357 16.4977C14.0045 17.1909 13.1632 17.8717 12.3106 18.54C12.1984 18.6275 12.001 18.6707 11.8585 18.6457C11.1025 18.5138 10.3509 18.357 9.59819 18.2024C9.02384 18.0842 8.82978 17.6728 9.08554 17.1318C9.19996 16.8898 9.33906 16.6556 9.42544 16.4045C9.61614 15.8521 9.89209 15.4566 10.5607 15.5885C10.6773 15.6123 10.8086 15.5532 10.9331 15.535C11.8978 15.3941 12.4531 14.9418 12.6045 13.9689C12.7189 13.237 12.7503 12.4687 12.6696 11.7334C12.4598 9.83087 10.4978 8.54661 8.76808 9.11486C7.14938 9.64675 6.23963 11.514 6.75788 13.2916C6.84201 13.5802 6.80948 13.7973 6.67038 14.0485C6.16223 14.9656 5.49141 15.7339 4.66018 16.359C3.56534 17.1818 2.77674 18.2263 2.29999 19.5322C1.6561 21.2938 0.962851 23.036 0.292037 24.7874C-0.0837539 25.7671 -0.0871192 26.7513 0.290915 27.7287C0.435623 28.1049 0.762056 28.2561 1.09634 28.1356C1.44297 28.0106 1.5944 27.7003 1.49232 27.315C1.46764 27.2207 1.42614 27.1298 1.3981 27.0343C1.16028 26.241 1.29489 25.508 1.7178 24.8033C2.70383 25.1704 3.66518 25.5125 4.61195 25.8921C4.82284 25.9773 5.03822 26.158 5.15713 26.3535C6.20037 28.064 7.21668 29.7904 8.25319 31.5042C8.54036 31.9781 8.70751 32.4634 8.66712 33.0283C8.63684 33.4693 8.87577 33.7307 9.25717 33.7443C9.63408 33.7568 9.88312 33.5068 9.92126 33.0817C9.98632 32.3543 9.84273 31.6747 9.46582 31.0485C9.21342 30.6302 8.96776 30.2075 8.69068 29.7415C9.20557 29.5983 9.66661 29.4699 10.1523 29.3346C10.5023 30.8303 11.3111 31.9793 12.3544 32.9828C12.6685 33.2851 12.95 33.6238 13.2708 33.9193C13.9316 34.5251 14.4072 35.2615 14.8772 36.0219C15.2216 36.5788 15.1891 37.1152 15.0892 37.6823C15.0051 38.1608 14.7 38.4665 14.2109 38.5211C13.392 38.6108 12.5709 38.7109 11.7486 38.7529C10.8849 38.7972 10.1871 39.1086 9.65427 39.8156C9.23361 40.3747 8.77818 40.9055 8.31938 41.4726C7.82131 40.6157 7.12694 40.1611 6.15549 40.094C6.50997 39.486 6.84201 38.9143 7.17518 38.3449C7.60257 37.6141 8.03445 36.8856 8.45848 36.1526C8.61889 35.8764 8.61777 35.5604 8.36313 35.3866C8.17579 35.2581 7.87404 35.2218 7.64408 35.2638C7.496 35.2911 7.3569 35.515 7.26043 35.6786C6.44715 37.0504 5.64734 38.429 4.83518 39.8008C4.76226 39.9235 4.6456 40.0872 4.53118 40.1042C4.23952 40.1474 3.93665 40.119 3.6046 40.119C3.84578 39.1757 4.08808 38.3051 4.29112 37.4266C4.54352 36.331 5.00232 35.3468 5.71352 34.4819C5.9289 34.2205 6.12745 33.9454 6.33161 33.6761C6.72535 33.159 6.69618 32.8555 6.18578 32.4646C5.09655 31.6326 4.22718 30.6143 3.59339 29.388C3.35894 28.9334 3.02914 28.7948 2.68139 28.9732C2.31458 29.1607 2.23157 29.5324 2.46714 29.9892C2.9753 30.978 3.62255 31.8611 4.419 32.6316C4.62765 32.8328 4.83967 33.0328 5.00344 33.1885C4.5323 33.9443 4.00283 34.6217 3.66181 35.3866C3.29163 36.2162 3.06279 37.1175 2.83732 38.0039C2.4963 39.3405 2.02067 40.6498 2.12163 42.0761C2.1923 43.0717 2.75319 43.6888 3.73361 43.6899C5.04944 43.6922 6.36414 43.6808 7.67997 43.6968C8.03669 43.7013 8.28685 43.5786 8.50559 43.3012C9.20333 42.4148 9.92574 41.5476 10.6156 40.6554C10.9151 40.269 11.2808 40.0747 11.7553 40.0406C12.5361 39.9849 13.3168 39.9133 14.0965 39.8519C15.2754 39.7599 16.1224 39.0439 16.3501 37.9233C16.3983 37.6891 16.3658 37.4334 16.4376 37.2107C16.4993 37.0197 16.6204 36.7992 16.7797 36.7004C17.7478 36.106 18.7271 35.5309 19.7154 34.9729C20.4288 34.5694 20.9302 33.9932 21.2645 33.2454C21.822 31.9952 22.4121 30.7598 22.9461 29.4994C23.2041 28.8914 23.6135 28.622 24.2451 28.539C26.6524 28.222 29.0597 27.8946 31.4602 27.5332C36.9872 26.7024 41.4439 22.4814 42.6734 16.9341C42.808 16.3306 42.8977 15.7169 43.0088 15.1077V12.7256C42.9807 12.6176 42.9381 12.5108 42.9269 12.4005ZM4.30234 42.417C3.35782 42.417 3.35782 42.417 3.45429 41.4033C4.4134 41.4033 5.3467 41.3771 6.27777 41.4135C6.81621 41.434 7.12021 41.7931 7.22117 42.417H4.30234ZM12.0661 20.0004C12.2736 20.0379 12.5619 19.9799 12.7257 19.8527C13.834 18.9889 14.9277 18.1047 16.0046 17.2012C16.1627 17.0682 16.2637 16.8 16.2873 16.5829C16.3243 16.234 16.2727 15.876 16.2626 15.5214C16.2435 14.8463 16.5262 14.3928 17.2015 14.0883C17.2374 15.1498 17.2856 16.1647 17.2957 17.1807C17.2969 17.3307 17.1499 17.516 17.0243 17.6308C15.7959 18.748 14.5519 19.8481 13.3258 20.9676C12.9567 21.304 12.5518 21.3858 12.084 21.3006C10.5315 21.0187 8.97785 20.7414 7.42533 20.4641C6.81173 20.355 6.51109 20.0788 6.5784 19.6731C6.6558 19.2003 7.03944 19.0207 7.66651 19.1457C9.13153 19.439 10.5966 19.7345 12.0661 20.0004ZM10.5517 11.9346C10.7895 11.8345 11.0475 11.7879 11.2977 11.7186C11.3493 11.9277 11.4446 12.1369 11.4435 12.3448C11.4412 12.8222 11.4188 13.3041 11.347 13.7746C11.3235 13.9291 11.1328 14.1599 10.9981 14.1758C10.4115 14.2405 9.80571 14.3178 9.22913 14.2326C8.87689 14.1814 8.56504 13.8439 8.23524 13.6336C8.25319 13.5916 8.27114 13.5495 8.28797 13.5064C9.15621 13.4063 9.79001 12.9461 10.2645 12.2335C10.3397 12.1187 10.435 11.9834 10.5517 11.9346ZM8.70078 10.5855C9.24147 10.1889 9.81805 10.1593 10.3453 10.4173C9.90443 10.856 9.46806 11.2561 9.07432 11.6925C8.7636 12.038 8.42258 12.2494 7.89535 12.2062C7.90881 11.5231 8.16345 10.9799 8.70078 10.5855ZM7.68782 14.8622C7.95144 15.0361 8.20384 15.2032 8.49549 15.3952C8.35864 15.6851 8.21954 15.9806 8.07932 16.2772C7.73718 16.1033 7.42309 15.9442 7.08432 15.7726C7.28735 15.4668 7.48478 15.1679 7.68782 14.8622ZM4.84079 24.5931C3.986 24.2532 3.11776 23.9464 2.22371 23.6157C2.25624 23.4997 2.27756 23.3952 2.31233 23.2974C2.74197 22.1041 3.16151 20.9073 3.60685 19.7197C4.01293 18.6355 4.72861 17.8058 5.72249 17.233C6.44154 16.8182 7.18752 17.0386 7.63286 17.8035C6.36302 17.7467 5.45439 18.4172 5.31754 19.4867C5.17059 20.6425 5.83916 21.4165 7.3154 21.77C7.26828 21.8563 7.23351 21.9404 7.18079 22.012C6.58513 22.8144 5.97938 23.6111 5.3927 24.4192C5.23565 24.6328 5.10552 24.6976 4.84079 24.5931ZM14.8323 33.6818C13.4167 32.1611 11.6858 30.8962 11.2584 28.6447C11.1159 27.8958 10.8422 27.7844 10.112 27.9935C9.50845 28.1663 8.90718 28.347 8.29919 28.5015C8.18028 28.5322 7.96266 28.5027 7.91218 28.422C7.44664 27.6878 7.00916 26.9354 6.50548 26.0921C7.0473 26.0921 7.50049 26.0944 7.95368 26.0921C8.93186 26.0887 9.91004 26.0796 10.8882 26.0808C11.6185 26.0808 12.2119 26.3899 12.5372 27.0491C13.5423 29.0834 14.5115 31.1337 15.4942 33.1783C15.5054 33.2022 15.5009 33.2329 15.5054 33.2806C15.299 33.4045 15.0836 33.5318 14.8323 33.6818ZM16.0865 35.6014C15.9204 35.307 15.7645 35.0308 15.5906 34.7251C16.4432 34.233 17.2531 33.7386 18.0888 33.292C18.5768 33.0317 19.0894 33.2238 19.3306 33.7011C18.2593 34.3285 17.1869 34.957 16.0865 35.6014Z" fill="#5F5F5F"/>
</svg>
