<svg width="45" height="45" viewBox="0 0 45 45" fill="none" xmlns="http://www.w3.org/2000/svg">
<path fill-rule="evenodd" clip-rule="evenodd" d="M4.09804 0.34623C3.98153 0.462246 3.88616 0.657324 3.88616 0.779785C3.88616 0.902246 3.98153 1.09732 4.09804 1.21334C4.29473 1.40928 4.37154 1.42432 5.1741 1.42432H6.03836L4.95756 2.89187C4.36317 3.69908 3.84103 4.45318 3.79736 4.56765C3.69845 4.82675 3.81583 5.16208 4.04894 5.28626C4.1544 5.34246 4.93555 5.37744 6.08522 5.37744H7.95036L8.16215 5.16646C8.27867 5.05045 8.37403 4.89765 8.37403 4.82684C8.37403 4.61878 8.18934 4.27512 8.03874 4.20285C7.9621 4.16615 7.40698 4.11562 6.80518 4.0907L5.71091 4.04541L6.82322 2.5415C8.05203 0.879816 8.14429 0.649504 7.71509 0.313402C7.50373 0.147801 7.37557 0.135254 5.8988 0.135254C4.32684 0.135254 4.30759 0.137488 4.09804 0.34623ZM8.91422 7.23911C8.48606 7.32925 8.31319 7.98092 8.63295 8.29932C8.77682 8.44257 8.9206 8.47119 9.496 8.47119C9.87574 8.47119 10.1864 8.50763 10.1864 8.55215C10.1864 8.59666 9.85632 9.08341 9.45285 9.63384C8.6181 10.7725 8.53516 11.0645 8.95349 11.3921C9.17538 11.566 9.26548 11.5742 10.6767 11.5488C12.3046 11.5195 12.3794 11.4968 12.4787 11.002C12.5165 10.814 12.4834 10.6836 12.3591 10.5305C12.2052 10.3408 12.1055 10.3144 11.4013 10.2759L10.6152 10.2329L11.3933 9.16935C12.2238 8.03429 12.3071 7.79779 12.0066 7.428C11.8469 7.23137 11.7996 7.22467 10.4747 7.21169C9.72281 7.2043 9.02055 7.21668 8.91422 7.23911ZM20.3682 8.20298C18.8083 8.54192 17.6916 9.14296 16.6075 10.2273C15.9495 10.8853 15.7568 11.1448 15.4199 11.826C14.8894 12.8989 14.6738 13.7643 14.6124 15.0669C14.5655 16.0642 14.5533 16.1196 14.3813 16.1195C14.2814 16.1193 12.8792 15.9458 11.2653 15.7339C9.65135 15.5218 8.15611 15.3484 7.94251 15.3483C7.04864 15.3481 6.12941 15.7582 5.54693 16.4171C4.67396 17.4046 4.743 18.8982 5.72904 20.3576C5.92659 20.65 7.68989 22.776 9.64764 25.0822L13.2071 29.2752V30.6316C13.2071 31.9384 13.2145 31.9949 13.4068 32.175C13.6533 32.4056 13.9857 32.4144 14.2548 32.1977C14.4536 32.0375 14.4592 31.9959 14.4838 30.4574C14.5136 28.6022 14.715 29.0408 12.7982 26.7861L11.483 25.2391L13.1434 23.3496C14.0566 22.3104 14.8587 21.4573 14.926 21.4539C15.1737 21.4414 16.8845 22.43 17.4424 22.9082C17.7591 23.1796 18.1354 23.4706 18.2786 23.5549C18.5342 23.7052 18.5397 23.7231 18.5782 24.5329C18.6296 25.6164 18.8499 26.1862 19.4794 26.8633C19.7982 27.206 20.1434 27.4669 20.5275 27.6552C21.0644 27.9184 21.1574 27.936 22.0084 27.936C22.813 27.936 22.9727 27.9098 23.4099 27.7057C23.9908 27.4346 24.6781 26.8217 24.984 26.3018C25.2766 25.8049 25.4625 25.0557 25.4626 24.3731L25.4628 23.811L25.8386 23.5746C26.0453 23.4446 26.4627 23.1131 26.7663 22.8379C27.2898 22.3632 28.8437 21.4409 29.098 21.4539C29.2419 21.4612 32.5015 25.1624 32.4649 25.277C32.4507 25.3215 31.8483 26.054 31.1261 26.9048C30.404 27.7556 29.747 28.5473 29.666 28.6642C29.5352 28.8529 29.5188 29.1667 29.5188 31.4786V34.0806L15.1706 34.0819C3.86632 34.0828 0.777107 34.1059 0.609157 34.1905C0.491955 34.2496 0.305708 34.4314 0.195324 34.5944C-0.00395474 34.8889 -0.00516301 34.906 0.0201244 37.1912L0.0455844 39.4916L0.312095 39.7568C0.580245 40.0237 1.01911 40.1763 1.52952 40.1801L1.80517 40.1821L1.83158 41.9945C1.85765 43.7808 1.86093 43.8094 2.06176 43.9711C2.26095 44.1316 2.70413 44.1353 21.9696 44.1353C32.8069 44.1353 41.7366 44.1112 41.8134 44.0819C42.1446 43.9553 42.2057 43.6102 42.2057 41.8622V40.1821L42.4862 40.1801C43.0012 40.1763 43.4394 40.0246 43.7084 39.7568L43.9749 39.4916L44.0006 37.2436C44.028 34.8546 44.0064 34.6908 43.6158 34.3254L43.4001 34.1235L37.1283 34.0806L30.8565 34.0376L30.8336 31.6574L30.8107 29.2772L34.3713 25.0832C36.3297 22.7764 38.0937 20.65 38.2913 20.3576C39.0155 19.2863 39.253 18.1938 38.9631 17.2678C38.749 16.584 38.061 15.8853 37.3288 15.6079C36.4737 15.2839 35.9757 15.2993 32.6165 15.7535L29.5432 16.1691L29.4926 15.0916C29.4296 13.754 29.2157 12.8879 28.6901 11.8435C28.2512 10.9712 27.4899 10.0732 26.6914 9.48594C26.0657 9.02566 24.9615 8.51158 24.1247 8.29081C23.1296 8.02836 21.3619 7.98702 20.3682 8.20298ZM23.1918 9.41822C25.6371 9.81336 27.4816 11.4402 28.0126 13.6704C28.0801 13.954 28.1359 14.2974 28.1366 14.4334L28.1379 14.6809L27.4259 14.6204C24.9431 14.4096 22.3156 13.494 20.6624 12.2635C20.01 11.778 18.6444 10.4344 18.6444 10.2782C18.6444 10.2032 19.2544 9.90007 19.8095 9.69941C20.7712 9.35171 22.0978 9.24145 23.1918 9.41822ZM18.8384 12.4323L19.3456 12.9129L18.8712 13.3446C18.127 14.0218 17.285 14.4349 16.2925 14.6095C15.9749 14.6654 15.9689 14.6614 15.9689 14.3957C15.9689 13.6264 16.4876 12.3654 17.1494 11.5258L17.5469 11.0214L17.9391 11.4865C18.1547 11.7423 18.5594 12.168 18.8384 12.4323ZM21.6111 14.3109C23.4831 15.2285 25.0581 15.6734 27.1691 15.8811L28.2285 15.9853L28.1769 16.5036C27.9233 19.0522 27.0533 20.9424 25.5755 22.1558C23.704 23.6924 21.0979 23.8391 19.0759 22.5215C17.2734 21.3469 16.2274 19.3466 15.9239 16.494L15.8677 15.9659L16.3283 15.9036C17.5884 15.7331 18.8044 15.1578 19.7092 14.3039C20.0491 13.9831 20.3419 13.719 20.3597 13.717C20.3775 13.715 20.9407 13.9823 21.6111 14.3109ZM11.204 17.0218C12.8515 17.2344 14.3193 17.4283 14.4657 17.4527C14.7216 17.4953 14.7375 17.5238 14.8829 18.1977C14.9661 18.583 15.1423 19.2027 15.2746 19.5749C15.4069 19.947 15.49 20.2403 15.4593 20.2266C15.4287 20.2129 14.9318 19.96 14.3551 19.6646C13.7784 19.3692 13.2241 19.1274 13.1234 19.1274C12.8797 19.1274 12.5167 19.4993 12.5167 19.7489C12.5167 20.0518 12.7425 20.311 13.2132 20.5484C13.4471 20.6665 13.6386 20.7839 13.6386 20.8092C13.6386 20.9002 10.6767 24.2028 10.6164 24.1791C10.4851 24.1274 7.03233 20.0028 6.72431 19.5299C6.34966 18.9544 6.16505 18.2668 6.25585 17.7847C6.3721 17.1676 7.10026 16.6699 7.92438 16.6441C8.08051 16.6393 9.55633 16.8092 11.204 17.0218ZM36.639 16.7301C37.3362 16.9197 37.8041 17.4682 37.8041 18.0956C37.8041 18.4926 37.5054 19.2572 37.1673 19.726C36.8148 20.2145 33.4945 24.1433 33.4039 24.1791C33.3438 24.2028 30.3819 20.9001 30.3819 20.8092C30.3819 20.7839 30.5734 20.6665 30.8073 20.5484C31.513 20.1924 31.6945 19.7391 31.2919 19.3384C31.1754 19.2224 30.991 19.1288 30.882 19.1304C30.7731 19.1322 30.2385 19.3621 29.6941 19.6416C29.1497 19.9211 28.6946 20.14 28.6828 20.1283C28.6709 20.1166 28.7541 19.8337 28.8676 19.4997C28.9811 19.1657 29.1415 18.5794 29.2241 18.1967L29.3742 17.501L29.727 17.4487C31.4757 17.1892 35.5976 16.6537 35.9054 16.646C36.119 16.6406 36.4491 16.6785 36.639 16.7301ZM18.1415 17.0919C17.5601 17.7083 18.3483 18.444 19.4669 18.329C20.3552 18.2377 20.7864 17.7884 20.5052 17.2469C20.3353 16.9199 20.0346 16.8341 19.5809 16.9832C19.3118 17.0716 19.1779 17.0741 18.9568 16.9945C18.5445 16.846 18.3519 16.869 18.1415 17.0919ZM23.7561 16.9466C23.6958 16.973 23.5859 17.111 23.512 17.2534C23.4011 17.467 23.3959 17.5565 23.4828 17.7653C23.7538 18.4167 25.2456 18.5537 25.8724 17.9847C26.3238 17.575 25.9283 16.8053 25.3343 16.9372C24.9956 17.0124 24.5454 17.018 24.1679 16.9518C24.0017 16.9226 23.8164 16.9203 23.7561 16.9466ZM20.496 20.0259C20.1206 20.3997 20.2459 20.8165 20.8264 21.125C21.1305 21.2865 21.3252 21.3183 22.0103 21.3183C22.6991 21.3183 22.8894 21.287 23.2004 21.1218C23.404 21.0136 23.6148 20.8285 23.6689 20.7103C23.8002 20.4235 23.6714 20.0724 23.3738 19.9061C23.1663 19.7901 23.1011 19.7921 22.7277 19.9254C22.2175 20.1075 21.7577 20.1136 21.3497 19.9438C20.9191 19.7648 20.741 19.7819 20.496 20.0259ZM20.8451 24.6021C21.6425 24.7546 22.9835 24.7136 23.7257 24.514L24.1896 24.3892L24.1403 24.8032C24.0103 25.8967 23.1171 26.6862 22.0103 26.6862C20.8927 26.6862 20.0103 25.8972 19.8773 24.779C19.8289 24.3726 19.8371 24.3455 19.9899 24.4054C20.0806 24.441 20.4654 24.5295 20.8451 24.6021ZM42.7235 37.1313V38.8931H32.9759H23.2283L23.094 39.0841C22.9015 39.3576 22.9239 39.7795 23.1413 39.9754C23.317 40.1338 23.6077 40.1399 32.117 40.1622L40.9111 40.1853V41.5157V42.8462H22.0103H3.10942V41.5142V40.1821H11.8565C18.0203 40.1821 20.6844 40.1541 20.8772 40.0872C21.334 39.9286 21.4757 39.392 21.1472 39.0649C20.9766 38.895 20.8595 38.8931 11.1358 38.8931H1.29701V37.1313V35.3696H22.0103H42.7235V37.1313Z" fill="#5F5F5F"/>
</svg>
