<svg width="21" height="16" viewBox="0 0 21 16" fill="none" xmlns="http://www.w3.org/2000/svg">
<path d="M17.5653 0.529089L16.2217 1.58947L10.5013 5.884L4.78086 1.54705L3.43734 0.486674C3.12083 0.222157 2.73446 0.0572634 2.32609 0.01242C1.91773 -0.0324233 1.50531 0.044755 1.13994 0.234393C0.774562 0.424031 0.472289 0.717795 0.270566 1.07929C0.0688428 1.44079 -0.0234665 1.85413 0.00507429 2.26811V14.5579C0.00507429 14.9404 0.15547 15.3072 0.423176 15.5776C0.690881 15.8481 1.05397 16 1.43256 16H4.78086V7.81388L10.5013 12.1508L16.2217 7.81388V16H19.57C19.9486 16 20.3117 15.8481 20.5794 15.5776C20.8471 15.3072 20.9975 14.9404 20.9975 14.5579V2.26811C21.0172 1.8577 20.9185 1.45035 20.7133 1.09557C20.5082 0.740784 20.2054 0.453851 19.8419 0.269647C19.4783 0.0854425 19.0696 0.0118997 18.6654 0.0579579C18.2613 0.104016 17.8791 0.267692 17.5653 0.529089Z" fill="#CCCCCC"/>
</svg>
