<svg width="24" height="36" viewBox="0 0 24 36" fill="none" xmlns="http://www.w3.org/2000/svg">
<path d="M4.42929 35.4178L9.41532 10.2039C9.57747 9.4202 9.9423 8.83215 10.5098 8.43975C11.0773 8.04844 11.6719 7.85278 12.2934 7.85278C12.915 7.85278 13.4895 7.9879 14.0171 8.25815C14.5435 8.52839 14.9689 8.93376 15.2932 9.47425L16.9146 12.0686C17.4011 12.8523 18.0297 13.5614 18.8004 14.196C19.5701 14.8316 20.4548 15.298 21.4548 15.5953V12.7172H23.887V35.4178H21.4548V18.9599C20.1576 18.6626 18.955 18.1897 17.847 17.5411C16.739 16.8925 15.7796 16.0953 14.9689 15.1494L13.996 20.0138L17.4011 23.2568V35.4178H14.1581V25.689L10.753 22.446L7.83438 35.4178H4.42929ZM5.11842 19.4058L1.67279 18.7572C1.24039 18.6761 0.902587 18.4529 0.659366 18.0875C0.416145 17.7232 0.335071 17.3114 0.416145 16.852L1.63225 10.4877C1.7944 9.62289 2.25381 8.94025 3.0105 8.43975C3.76719 7.94034 4.57792 7.77171 5.44271 7.93385L7.3074 8.29868L5.11842 19.4058ZM14.9689 7.04204C14.0771 7.04204 13.3139 6.72424 12.6793 6.08862C12.0437 5.45408 11.7259 4.69091 11.7259 3.7991C11.7259 2.90729 12.0437 2.14357 12.6793 1.50796C13.3139 0.87342 14.0771 0.556152 14.9689 0.556152C15.8607 0.556152 16.6244 0.87342 17.26 1.50796C17.8945 2.14357 18.2118 2.90729 18.2118 3.7991C18.2118 4.69091 17.8945 5.45408 17.26 6.08862C16.6244 6.72424 15.8607 7.04204 14.9689 7.04204Z" fill="#5F5F5F"/>
</svg>
