<svg width="45" height="45" viewBox="0 0 45 45" fill="none" xmlns="http://www.w3.org/2000/svg">
<path fill-rule="evenodd" clip-rule="evenodd" d="M0.00878906 22.0156V44.0157L0.957065 43.6226C2.15493 43.1258 3.50552 41.8608 3.95842 40.8118C4.24569 40.1464 4.30764 36.4557 4.30764 20.0093V0.0157471H2.15821H0.00878906V22.0156ZM10.6295 9.19147C10.6295 14.2381 10.6806 18.3672 10.743 18.3672C10.8298 18.3672 34.1467 0.547436 34.6315 0.110772C34.6894 0.0584833 29.3125 0.0157471 22.6832 0.0157471H10.6295V9.19147ZM28.4872 8.37446C18.9528 15.5858 17.5327 16.7432 18.1418 16.8058C23.7592 17.384 29.7358 19.5176 32.4904 21.9281C33.1608 22.5146 35.7418 25.9609 38.7331 30.2632C41.5382 34.2978 43.8727 37.6458 43.921 37.7034C43.9693 37.7609 44.0088 29.3047 44.0088 18.912V0.0157471H41.7736H39.5382L28.4872 8.37446ZM13.9168 20.0244C12.8768 20.4716 11.4933 21.731 10.9873 22.6911C10.701 23.2341 10.6295 24.9363 10.6295 31.1924V39.0149L12.564 41.5119L14.4984 44.009H26.3286H38.1591L32.2211 34.7704C27.2769 27.0781 25.9943 25.2583 24.5588 23.8978C20.8246 20.3585 16.6628 18.8438 13.9168 20.0244Z" fill="#5F5F5F"/>
</svg>
