<svg width="45" height="45" viewBox="0 0 45 45" fill="none" xmlns="http://www.w3.org/2000/svg">
<path fill-rule="evenodd" clip-rule="evenodd" d="M21.4348 0.147223C19.9409 0.228172 18.2662 0.474326 17.07 0.788807C16.4257 0.958195 16.0737 1.16906 15.9695 1.44815C15.945 1.5137 15.9295 1.93536 15.9295 2.53565V3.51617L15.3753 3.6581C14.0664 3.99323 12.5221 4.58383 11.2072 5.25206C10.2834 5.7216 9.69501 6.11516 8.87132 6.81473C8.44582 7.17609 8.28551 7.38525 8.00487 7.94505C7.72676 8.49987 7.68132 8.7169 7.71398 9.33495L7.73934 9.8149L7.35927 10.1774C6.71649 10.7904 6.31779 11.403 6.06984 12.1584C5.85809 12.8036 5.81799 13.0561 5.79473 13.8916L5.77346 14.6553L5.52003 14.9753C5.27243 15.2879 5.06123 15.534 3.64419 17.1615C2.01617 19.0313 1.37076 19.9772 0.542379 21.7077C0.38872 22.0287 0.200865 22.4795 0.124843 22.7095C-0.00239746 23.0946 -0.0116794 23.152 0.00786148 23.4336C0.0618994 24.2122 0.41852 24.6926 1.50063 25.4447C1.79964 25.6525 2.18802 25.9359 2.3637 26.0745C2.53938 26.2131 2.88735 26.4748 3.13695 26.6561C4.04319 27.3142 4.31353 27.5967 4.63648 28.2227C4.73359 28.4109 4.84831 28.6034 4.89142 28.6505C5.00355 28.773 5.1828 28.8116 5.63998 28.8118C6.10408 28.8121 6.19081 28.8378 6.40737 29.0398C6.49471 29.1213 6.66828 29.2401 6.79304 29.3038C7.25808 29.5413 8.199 29.7433 8.42324 29.6537C8.57231 29.5941 8.55698 29.4788 8.38543 29.3692C8.14376 29.2148 7.96993 28.9798 7.71977 28.4693L7.47836 27.9765L7.73002 27.8257C7.86843 27.7427 8.15117 27.5989 8.35834 27.5062C8.82243 27.2984 10.0732 26.8417 10.264 26.8104C10.4541 26.7792 10.7428 26.9247 10.985 27.1738L11.1699 27.364L11.0699 27.6983C10.897 28.2763 10.8428 28.6906 10.8421 29.4394C10.8416 29.8392 10.861 30.2238 10.8886 30.3642L10.9359 30.6046L10.6218 30.9155C10.4308 31.1045 10.2358 31.3458 10.1245 31.5306C9.88673 31.9257 9.80658 32.0171 9.7442 31.9648C9.66186 31.8956 9.46683 31.3739 9.35094 30.9129C9.22986 30.431 9.16451 30.2949 9.05437 30.2949C8.81698 30.2949 8.45142 31.4685 8.45142 32.2305V32.5762H8.3099C7.99867 32.5762 7.78181 32.8152 7.7021 33.246C7.62206 33.6787 7.58343 34.5466 7.62349 35.0131C7.71255 36.0511 7.91919 36.5485 8.47036 37.0518C8.9045 37.4483 9.22215 37.6139 9.91988 37.8074C10.8687 38.0705 11.1797 38.1942 11.702 38.516C12.8384 39.2163 14.0839 39.8044 15.4279 40.2755L15.9108 40.4447L15.9295 41.5959C15.9502 42.8627 15.9533 42.8797 16.1958 43.0862C16.3725 43.2367 16.487 43.2872 16.8939 43.3941C19.2043 44.0015 22.031 44.2451 24.5726 44.0558C26.5619 43.9077 28.5206 43.4817 29.034 43.0855C29.2795 42.896 29.2867 42.8592 29.3075 41.6873L29.3263 40.6275L29.8148 40.4829C30.8732 40.1695 31.7982 39.8052 32.5885 39.3906C33.2968 39.0189 35.0989 38.0124 35.3586 37.8433C35.6079 37.6811 35.8265 37.438 36.351 36.7396C36.4924 36.5514 36.8055 36.2007 37.0468 35.9602C37.5383 35.4704 37.6481 35.2874 37.6786 34.9072C37.7023 34.6119 37.6528 34.4114 37.4449 33.9614L37.2804 33.6053L37.3585 33.4045C37.4177 33.2519 37.4406 33.0892 37.4534 32.7283C37.4722 32.1974 37.4142 31.7819 37.2491 31.2645C37.0256 30.5639 36.8483 30.5291 36.6683 31.1504C36.4448 31.9215 36.1787 32.6142 36.1059 32.6142C36.0892 32.6142 35.9772 32.5315 35.8571 32.4303C35.0837 31.7791 34.5334 30.7873 34.324 29.6675C34.2504 29.274 34.1888 28.3424 34.2234 28.1467C34.249 28.0021 34.2615 27.9905 34.4752 27.9123C34.9342 27.7442 35.3567 27.6903 36.2032 27.6917C37.0378 27.693 37.2925 27.7305 37.6029 27.8978C37.9077 28.0622 37.9038 28.0409 37.7023 28.4356C37.4859 28.8596 37.1525 29.2945 36.9199 29.4565C36.7189 29.5964 36.6645 29.6808 36.7155 29.7731C36.7642 29.8611 36.9997 29.859 37.4809 29.7662C38.2279 29.622 38.6595 29.4782 39.0441 29.2452C39.2486 29.1212 39.2627 29.1183 39.5528 29.141C39.8916 29.1674 40.1814 29.1025 40.4683 28.9361C40.5613 28.8821 40.8742 28.5964 41.1635 28.3011C41.4772 27.9811 42.1829 27.348 42.9109 26.7335C43.5826 26.1666 44.2641 25.5682 44.4253 25.4038C45.1182 24.6969 45.1721 24.0473 44.654 22.6469C44.34 21.798 44.0594 21.2487 43.1618 19.7248C42.384 18.4044 41.487 17.0148 40.9407 16.2838C40.7844 16.0747 40.6218 15.8108 40.5794 15.6974C40.4725 15.4121 40.3938 14.8422 40.3926 14.3447C40.3908 13.6104 40.3104 13.3849 39.8526 12.8315C39.5665 12.4855 39.0247 11.7234 38.6037 11.0748L38.3076 10.6185L38.3069 9.70597C38.3063 8.8072 38.3048 8.78918 38.2038 8.51169C37.9899 7.92402 37.6874 7.51624 36.885 6.73401C36.2559 6.12071 35.9737 5.92851 34.9255 5.39959C33.6359 4.74888 32.7044 4.37794 31.4683 4.02296C30.8095 3.83376 29.5237 3.52738 29.3884 3.52738C29.3137 3.52738 29.3117 3.50404 29.3004 2.50398L29.2887 1.48054L29.1744 1.31579C29.0147 1.08561 28.6952 0.930895 28.0486 0.770632C26.0107 0.265547 23.5433 0.0329664 21.4348 0.147223ZM23.5392 0.486151C24.8505 0.551549 26.1216 0.712192 27.3158 0.963442C28.5049 1.21363 28.7891 1.31864 28.9035 1.55024C28.966 1.67658 28.9688 2.72246 28.9599 22.1827C28.9509 41.8027 28.9476 42.6853 28.8834 42.7572C28.6278 43.0429 27.0692 43.4395 25.4933 43.6198C23.7463 43.8196 21.8358 43.819 20.0632 43.6182C18.7517 43.4696 16.9285 43.1041 16.5664 42.9172C16.4887 42.8771 16.3898 42.7988 16.3465 42.743L16.2678 42.6418V22.1358C16.2678 7.11256 16.279 1.60495 16.3097 1.53662C16.4304 1.26861 17.5185 0.966674 19.2677 0.715842C20.8815 0.484364 22.1435 0.416533 23.5392 0.486151ZM21.416 1.3272C20.2969 1.39811 18.6038 1.66982 17.7556 1.91468C17.3692 2.0262 17.0766 2.16593 17.0428 2.25497C17.0299 2.28904 17.0193 11.236 17.0193 22.1371V41.9573L17.118 42.0572C17.2344 42.1749 17.4967 42.2604 18.297 42.4417C19.9494 42.8159 21.6681 42.9897 23.2446 42.9418C24.8515 42.8931 26.3218 42.687 27.3859 42.3615C27.8773 42.2112 28.0757 42.1179 28.1589 41.9977C28.2121 41.9208 28.2177 40.0232 28.2177 22.1202C28.2177 4.21714 28.2121 2.3195 28.1589 2.24258C28.0647 2.10654 27.8612 2.02388 27.2211 1.86167C25.4087 1.40244 23.2975 1.20804 21.416 1.3272ZM21.867 8.35618V12.7667H23.7271H25.5872V13.6603V14.5538H22.6561H19.725V9.2497V3.94562H20.796H21.867V8.35618ZM12.6602 5.40696C12.6602 5.41601 12.4531 5.5908 12.1999 5.79532C11.3665 6.46854 10.5295 7.38525 10.4255 7.73886C10.4045 7.80984 10.4747 7.77574 10.8256 7.54437C11.3415 7.20408 11.7983 6.96758 12.0859 6.8918C12.3281 6.82796 12.7257 6.81785 12.8105 6.87332C12.8602 6.90583 12.86 6.91024 12.8088 6.91077C12.7137 6.91172 12.2187 7.23826 11.9005 7.50996C11.6106 7.75752 11.0583 8.37363 10.8747 8.65431C10.7831 8.79446 10.7829 8.79583 10.846 9.00336C10.8809 9.11792 10.9133 9.21772 10.9181 9.2251C10.9229 9.23251 11.0674 9.11955 11.2393 8.97412C12.008 8.32345 13.4469 7.31445 13.5121 7.38038C13.5253 7.39377 13.4532 7.47692 13.3518 7.56513C12.9822 7.88695 12.3444 8.5342 12.1275 8.80758C11.9071 9.08556 11.7208 9.40711 11.7208 9.5095C11.7208 9.53878 11.8017 9.5968 11.9007 9.6384L12.0806 9.71406L12.455 9.49156C13.0175 9.15712 13.9374 8.78351 14.1104 8.81921C14.1486 8.82708 14.0915 8.8875 13.9505 8.98845C13.5857 9.24962 13.3831 9.45144 13.1441 9.79163L12.9164 10.1159L13.0469 10.248L13.1775 10.3802L13.39 10.2997C14.1207 10.0231 14.727 10.4982 14.727 11.3474C14.727 11.791 14.5366 12.1395 14.1593 12.3862C13.928 12.5375 13.4512 12.6907 13.2119 12.6907C13.0935 12.6907 13.0736 12.703 13.0736 12.7762C13.0737 12.8744 13.2614 13.2932 13.3426 13.3764C13.3726 13.407 13.4691 13.5397 13.5571 13.6711L13.717 13.9101L13.4047 14.057C12.9764 14.2585 12.7519 14.3018 12.2606 14.2779C11.7604 14.2535 11.5753 14.191 10.665 13.7396C9.74694 13.2843 9.46018 13.2115 8.67689 13.2346C8.05049 13.2532 7.5457 13.3549 7.44946 13.482C7.23425 13.7663 7.13185 14.5618 7.26676 14.9017C7.28468 14.9469 7.22151 15.0321 7.04125 15.2059C6.77433 15.4632 6.67155 15.6347 6.49696 16.1137C6.33451 16.5596 6.24721 16.7128 6.01351 16.9625L5.80213 17.1884L6.11005 17.1652C6.9647 17.1008 7.8301 16.6914 8.44838 16.0591L8.68959 15.8125L8.79327 15.8872C9.03171 16.059 9.20983 16.1112 9.5412 16.1064L9.86061 16.1019L9.61252 16.0762C9.08544 16.0216 8.73532 15.6466 8.46754 14.85C8.36349 14.5405 8.38066 14.4885 8.59294 14.4696C8.71394 14.4589 8.71744 14.4632 8.8469 14.7819C9.06613 15.3218 9.51512 15.9023 9.60425 15.7611C9.62079 15.7349 9.63522 15.5167 9.63627 15.2762C9.63792 14.901 9.64999 14.8162 9.72135 14.6786C9.76708 14.5904 9.83713 14.5006 9.87707 14.479C9.9776 14.4246 10.207 14.4297 10.2426 14.4872C10.2589 14.5134 10.283 14.6529 10.2963 14.7973C10.3477 15.3572 10.2174 15.851 9.9776 16.0053C9.87365 16.0721 9.87106 16.0778 9.95456 16.0555C10.295 15.965 10.8241 15.5936 11.1127 15.2428L11.2956 15.0205L11.4988 15.1479C11.6138 15.22 11.8401 15.3106 12.0202 15.3566C12.29 15.4255 12.4073 15.4347 12.7906 15.4172C13.4075 15.389 13.9587 15.2278 14.3145 14.9714C14.376 14.9271 14.4264 14.9042 14.4264 14.9205C14.4264 14.9368 14.511 14.8659 14.6143 14.7629C14.8342 14.5438 14.854 14.572 14.6723 14.845C14.2445 15.4878 13.5835 15.9907 12.6038 16.4191C12.3972 16.5094 12.2234 16.5862 12.2178 16.5897C12.2122 16.5932 12.3021 16.7482 12.4178 16.9342L12.6279 17.2724L12.5279 17.2847C12.473 17.2915 12.1199 17.2701 11.7434 17.2372C11.3669 17.2043 11.0366 17.1773 11.0094 17.1773C10.8363 17.1773 11.4966 17.6225 12.2081 17.9854L12.7917 18.2831L12.4535 18.26C11.7536 18.2123 10.7625 17.9798 9.81364 17.6406C9.58114 17.5576 9.39088 17.5023 9.39088 17.518C9.39088 17.5681 9.7755 17.9165 10.0971 18.1578C10.2685 18.2864 10.5798 18.4895 10.7887 18.6092C11.164 18.8242 11.9585 19.1915 12.0496 19.1922C12.0754 19.1923 12.0965 19.2092 12.0965 19.2298C12.0965 19.2512 12.0284 19.2593 11.9368 19.2488C11.849 19.2387 11.5235 19.2129 11.2134 19.1914C10.4979 19.1418 9.83175 19.0304 9.26575 18.8656C9.02126 18.7945 8.80988 18.7363 8.79601 18.7364C8.7044 18.7371 9.34113 19.1854 9.67272 19.3536C10.2727 19.6581 10.8234 19.8283 12.2815 20.1602C12.7862 20.275 13.2143 20.3843 13.2328 20.4029C13.2836 20.4543 12.9662 20.5227 12.4753 20.566C11.7381 20.6312 10.2806 20.5037 9.14106 20.2742C8.88012 20.2217 8.66002 20.1854 8.65194 20.1936C8.62717 20.2187 9.13276 20.4711 9.37209 20.5531C10.1992 20.8368 11.1538 20.9719 12.5663 21.0054C13.4109 21.0254 14.467 20.9859 14.9807 20.9151C15.2113 20.8833 15.1861 20.9633 14.9291 21.0782C14.6137 21.2194 14.1252 21.3344 12.773 21.5861C11.2903 21.8621 11.0467 21.914 11.1195 21.9386C11.1505 21.9491 11.2604 21.9775 11.3638 22.0017C11.6388 22.0661 11.9421 22.2337 12.067 22.3905C12.139 22.4809 12.1913 22.6076 12.2202 22.7613C12.2511 22.9255 12.281 22.9946 12.3212 22.9946C12.4098 22.9944 13.0551 22.8141 13.4306 22.6845C13.9139 22.5177 14.4712 22.2429 14.8304 21.9945C15.0757 21.8247 15.1404 21.7943 15.1404 21.8485C15.1404 22.0448 14.6489 22.5575 14.2318 22.7962C14.0358 22.9083 14.0314 22.9566 14.2171 22.9566C14.6726 22.9566 15.9295 23.4741 15.9295 23.6616C15.9295 23.7094 15.8898 23.7152 15.6947 23.6954C15.4514 23.6708 14.8174 23.7277 14.5621 23.7972L14.4161 23.8369L14.6948 23.9595C15.1992 24.1814 15.6189 24.5381 15.7993 24.8984C15.8503 25.0001 15.892 25.0914 15.892 25.1012C15.892 25.1111 15.778 25.0669 15.6387 25.003C15.1908 24.7974 14.7374 24.7019 14.0976 24.6781C13.7502 24.6651 13.5245 24.6708 13.5245 24.6924C13.5245 24.7121 13.7401 24.7756 14.0036 24.8336C14.6908 24.9848 15.4531 25.3438 15.7901 25.675C15.8979 25.7808 15.9295 25.8418 15.9295 25.9432C15.9295 26.0154 15.9194 26.0745 15.907 26.0745C15.8946 26.0745 15.7192 25.9806 15.5172 25.8659C14.8864 25.5077 14.4049 25.3163 13.9943 25.2604L13.8064 25.2349L14.0882 25.3922C14.4547 25.5968 14.9984 26.0408 14.9465 26.0932C14.9374 26.1024 14.8059 26.0676 14.6543 26.0157C13.4188 25.5928 12.1762 25.5298 10.6873 25.8147C10.4254 25.8649 10.4277 25.8652 11.251 25.8887C12.0975 25.9129 12.2589 25.931 13.0736 26.093C13.3319 26.1443 13.7699 26.2301 14.0469 26.2836C14.8622 26.441 15.3032 26.6545 15.7003 27.084L15.9301 27.3326L15.9205 29.6597L15.9108 31.9869L15.5185 32.0843C15.3028 32.1379 15.1202 32.2004 15.1127 32.2232C15.1007 32.2596 15.2746 32.4271 15.5488 32.6433L15.6377 32.7134L15.2294 32.8958C14.7274 33.1201 14.1499 33.3169 13.8251 33.3745C13.4149 33.4473 13.4131 33.448 13.435 33.5057C13.4463 33.5354 13.5477 33.6241 13.6604 33.7026C13.802 33.8013 13.8501 33.8541 13.8159 33.8734C13.69 33.9448 13.0738 34.0284 12.7864 34.0133L12.4804 33.9971L12.4556 34.2277C12.4419 34.3546 12.421 34.5225 12.4092 34.6009L12.3875 34.7435H12.1362C11.8119 34.7435 11.4702 34.6801 11.3208 34.5922L11.2026 34.5227L11.1798 34.6378C11.1673 34.7012 11.1571 34.8107 11.1571 34.8813C11.1571 34.9519 11.1468 35.0096 11.1343 35.0096C10.9566 35.0096 10.3536 34.7678 10.2081 34.6381C10.1463 34.5831 10.1434 34.5898 10.1607 34.747C10.2181 35.2697 10.2634 35.6155 10.2911 35.7416C10.3132 35.8422 10.3096 35.8841 10.279 35.8841C10.2281 35.8841 9.5318 35.0794 9.26522 34.7124L9.08067 34.4583L9.10634 34.7435C9.14572 35.1809 9.30133 35.9148 9.42974 36.2689C9.58708 36.7027 9.59215 36.7209 9.55499 36.7184C9.47758 36.7132 9.1485 36.2555 8.99417 35.9385C8.73724 35.4106 8.56415 34.5897 8.56415 33.8989C8.56415 33.7323 8.57231 33.7123 8.62992 33.7372C9.03667 33.913 9.62658 33.9082 10.0673 33.7255C10.291 33.6328 10.419 33.6056 10.6873 33.5935C10.9465 33.5819 11.0648 33.5579 11.1935 33.4905C11.4376 33.3628 11.5677 33.2587 11.6675 33.111L11.7559 32.9805L12.1435 32.9902C12.955 33.0106 13.6413 32.699 14.0588 32.1205C14.205 31.9179 14.242 31.8905 14.464 31.8198C14.7852 31.7175 15.1236 31.4883 15.3932 31.1906C15.8005 30.7408 15.8517 30.5002 15.7067 29.717C15.6668 29.5016 15.6233 29.2141 15.6099 29.0782C15.5694 28.6654 15.4476 28.2084 15.3048 27.9335C15.1643 27.6629 14.8441 27.2627 14.4965 26.9231C14.2964 26.7276 14.2914 26.7254 13.8439 26.6321C13.0148 26.4594 12.7611 26.4356 11.7583 26.4369C10.9291 26.4379 10.7351 26.4498 10.3178 26.5251C9.05531 26.7528 7.88646 27.2073 6.71495 27.9262C6.26563 28.202 6.28832 28.1986 5.66106 28.0865C5.45055 28.0489 5.36404 28.0165 5.34946 27.97C5.30925 27.8419 4.90243 27.1883 4.65471 26.8539C4.51529 26.6657 4.25322 26.3494 4.07239 26.1511L3.74358 25.7905L3.9093 25.7384C4.06743 25.6887 4.0822 25.6711 4.23146 25.3539C4.55712 24.6619 5.11745 24.2403 5.90735 24.0931L6.15045 24.0478L6.13241 23.6638C6.11099 23.2071 6.1884 22.6318 6.32109 22.2619L6.41211 22.0082L6.3138 22.0799C6.25973 22.1193 6.0836 22.2751 5.92238 22.426L5.62927 22.7003L5.30234 22.7328C3.7821 22.8837 2.27531 23.3558 1.3903 23.9583C1.21661 24.0766 1.06126 24.1734 1.04507 24.1734C1.02883 24.1734 0.964198 24.0664 0.901366 23.9357C0.700885 23.5187 0.707762 23.0168 0.920456 22.5372C0.97487 22.4146 1.05221 22.2842 1.09238 22.2474C1.13255 22.2107 1.23942 22.0258 1.32987 21.8367C1.68082 21.1028 2.2236 20.2281 2.86458 19.3636C3.33777 18.7253 3.69943 18.2802 4.82656 16.9492C5.36667 16.3113 5.9821 15.5756 6.19415 15.3142L6.57975 14.8389L6.55626 14.5918C6.4725 13.7111 6.49681 13.217 6.65231 12.641C6.75133 12.2742 7.04921 11.6636 7.27773 11.3592C7.51064 11.0489 7.96335 10.6185 8.26116 10.4244L8.48836 10.2763L8.48866 10.0821C8.48885 9.97531 8.47058 9.66528 8.44807 9.39312L8.40711 8.8983L8.56284 8.63899C9.39701 7.24966 10.9501 5.95212 12.3211 5.49921C12.6878 5.37803 12.6602 5.38556 12.6602 5.40696ZM33.1453 6.186C33.9568 6.682 34.5295 7.16526 34.921 7.68418C35.2041 8.05938 35.3559 8.34398 35.5863 8.93108C35.8765 9.67049 36.0246 9.78976 36.7105 9.83634L37.0299 9.85805L37.2929 10.3939C37.5942 11.0077 37.8193 11.3417 38.1175 11.6175C38.2841 11.7716 38.3524 11.8727 38.4535 12.1152C38.6359 12.5529 38.8868 12.9122 39.246 13.2505L39.5601 13.5462L39.6018 14.1736C39.6679 15.1671 39.7741 15.7395 39.9621 16.1148C40.0107 16.2118 40.1799 16.4672 40.3381 16.6823C41.1272 17.755 42.2672 19.5877 43.3447 21.5153C43.9673 22.6293 44.1653 23.0424 44.2643 23.4341C44.3403 23.7348 44.3653 24.1734 44.3064 24.1734C44.266 24.1734 44.0961 24.0453 43.9349 23.8934L43.8128 23.7782L43.6889 23.8997C43.6208 23.9666 43.5442 24.0213 43.5187 24.0213C43.4933 24.0213 43.335 23.9261 43.1671 23.8097C42.5261 23.3655 42.0151 23.1734 41.4648 23.1697C41.2027 23.168 41.0962 23.1836 40.9944 23.2385C40.8155 23.3352 39.8737 23.9796 39.8467 24.0238C39.8348 24.0433 39.8741 24.0593 39.934 24.0593C40.1189 24.0593 40.5986 24.2 40.8482 24.3275C41.2008 24.5076 41.5271 24.8563 41.7073 25.2455C41.8891 25.6383 42.009 26.0686 42.009 26.3281C42.009 26.5232 42.0056 26.5292 41.793 26.7067C41.6741 26.806 41.281 27.1895 40.9193 27.5592C40.553 27.9335 40.1951 28.2652 40.1113 28.3079C39.5685 28.5851 38.8946 28.338 37.6874 27.4193C36.6932 26.6625 36.3694 26.5183 35.3201 26.3646C33.9278 26.1607 32.464 26.317 31.3854 26.7848C31.1162 26.9015 31.0567 26.9457 30.917 27.1331C30.6659 27.4696 30.3727 28.0749 30.1928 28.6281C30.0016 29.2161 29.7967 30.209 29.7704 30.6751C29.7527 30.9891 29.7558 31.0042 29.8775 31.206C30.2994 31.9056 32.4818 33.109 34.3895 33.694C35.1836 33.9376 35.5334 33.9963 36.2091 33.9993L36.8163 34.0021L36.9368 34.2492C37.0103 34.3998 37.0646 34.578 37.0758 34.7055C37.1003 34.9833 37.0288 35.0716 36.5965 35.2975C36.1744 35.5181 35.9545 35.7516 35.4886 36.4735C35.0896 37.0918 34.932 37.2531 34.7269 37.2527C34.5802 37.2524 34.4113 37.1622 34.3255 37.0381C34.2974 36.9976 34.2454 36.8631 34.2098 36.7392C34.0866 36.3107 34.1959 35.6339 34.544 34.6687C34.638 34.4079 34.7116 34.1912 34.7074 34.187C34.7033 34.1828 34.479 34.2448 34.209 34.3246C33.6435 34.4919 33.0176 34.6294 32.8221 34.6294C32.6469 34.6294 32.4433 34.5422 32.3919 34.445C32.2895 34.2514 32.3599 34.0166 32.6318 33.6453C32.8081 33.4046 32.8086 33.4029 32.7025 33.4302C31.9878 33.6148 31.1221 33.6962 30.9105 33.5986C30.8083 33.5515 30.7355 33.4185 30.7355 33.2788C30.7355 33.228 30.8119 33.0386 30.9053 32.858C31.0318 32.6133 31.0581 32.5363 31.0086 32.5562C30.9721 32.5709 30.766 32.643 30.5506 32.7164C30.2062 32.8337 30.1231 32.8482 29.8611 32.8361C29.5898 32.8237 29.5552 32.813 29.473 32.7162C29.4233 32.6578 29.3828 32.5639 29.383 32.5076C29.3835 32.3744 29.5394 32.0376 29.6892 31.8462L29.8073 31.6953L29.6232 31.7242C29.5219 31.74 29.4052 31.7543 29.3639 31.7559C29.2896 31.7587 29.2887 31.7344 29.2887 29.6675V27.5763L29.4006 27.3672C29.5777 27.0362 29.9613 26.6764 30.3289 26.4966C30.6597 26.3348 31.1702 26.1849 31.6374 26.1125C31.7924 26.0885 32.1644 26.0192 32.4641 25.9587C33.1931 25.8114 33.7693 25.7596 34.4992 25.7758C35.0421 25.7879 35.0844 25.7845 34.9028 25.7432C33.9147 25.5185 32.6263 25.4745 31.7782 25.6365C31.4092 25.707 30.837 25.8612 30.6479 25.9412C30.4299 26.0333 30.4099 26.0086 30.5682 25.8427C30.7431 25.6594 31.0928 25.3997 31.3517 25.2607C31.5239 25.1683 31.5287 25.1619 31.4254 25.1619C31.1213 25.1619 30.5311 25.3948 29.822 25.7945C29.5779 25.932 29.37 26.0363 29.3601 26.0262C29.3501 26.0162 29.37 25.9369 29.4043 25.85C29.4974 25.6149 29.7889 25.38 30.3033 25.1257C30.7976 24.8814 31.06 24.7919 31.5996 24.6832C31.8926 24.6242 31.9363 24.607 31.8439 24.5869C31.3684 24.484 30.3292 24.6398 29.7654 24.8984C29.631 24.9601 29.5157 25.005 29.5092 24.9984C29.4849 24.9739 29.6688 24.6655 29.808 24.4972C30.0005 24.2646 30.4177 23.9737 30.7457 23.8435L31.0137 23.7371L30.8088 23.6866C30.6961 23.6588 30.3376 23.6264 30.0121 23.6145C29.6866 23.6027 29.4202 23.5789 29.4202 23.5617C29.4202 23.5099 29.9069 23.2352 30.2274 23.106C30.5171 22.9892 31.1063 22.8445 31.2992 22.8427C31.381 22.842 31.3713 22.8288 31.224 22.7406C30.9702 22.5886 30.6557 22.3374 30.4977 22.1604C30.3533 21.9987 30.2183 21.7563 30.253 21.7212C30.2637 21.7104 30.4135 21.7971 30.586 21.9139C30.9726 22.1757 31.2852 22.3361 31.7552 22.5136C32.0811 22.6368 32.7358 22.8306 33.056 22.8987L33.1781 22.9247V22.749C33.1781 22.5564 33.2714 22.3382 33.4094 22.2079C33.5388 22.0858 33.8922 21.9325 34.161 21.8819L34.3959 21.8377L34.1534 21.7875C34.02 21.7599 33.3613 21.635 32.6896 21.5099C31.3338 21.2574 30.7776 21.1282 30.4881 20.9987C30.1932 20.8668 30.1849 20.81 30.465 20.8396C32.3959 21.0438 34.6636 20.9084 35.8837 20.5161C36.2222 20.4072 36.7683 20.1508 36.7344 20.1166C36.7258 20.1078 36.5005 20.1437 36.2339 20.1963C35.1366 20.4127 34.6244 20.4629 33.5163 20.4621C32.6878 20.4615 32.4456 20.4497 32.295 20.4022C32.1151 20.3455 32.1111 20.3413 32.2015 20.3044C32.2534 20.2832 32.693 20.1767 33.1785 20.0677C34.6199 19.7441 35.3865 19.4926 35.9544 19.1571C36.2111 19.0054 36.615 18.7026 36.5914 18.6794C36.5845 18.6727 36.3676 18.7263 36.1092 18.7983C35.4912 18.9707 34.9424 19.063 34.2303 19.1141C33.9099 19.1371 33.5633 19.1652 33.4599 19.1765C33.2313 19.2016 33.2657 19.1601 33.5727 19.0403C33.9495 18.8934 34.7167 18.4878 35.0946 18.2359C35.2909 18.105 35.5868 17.8661 35.7521 17.705L36.0527 17.412L35.4516 17.6167C34.4541 17.9563 33.658 18.1378 32.9526 18.1863L32.6332 18.2083L33.2908 17.864C33.8589 17.5666 34.4882 17.1595 34.446 17.1167C34.4386 17.1092 34.0615 17.1351 33.608 17.1744C33.1545 17.2136 32.7775 17.24 32.7702 17.2329C32.7629 17.2259 32.8528 17.0713 32.9699 16.8894C33.0872 16.7075 33.1692 16.5458 33.1524 16.53C33.1355 16.5142 32.9949 16.4458 32.8399 16.3781C31.4495 15.7703 30.7321 15.0852 30.2924 13.9454C30.232 13.7886 30.1709 13.6117 30.1568 13.5523C30.1316 13.4463 30.1348 13.4474 30.3464 13.6219C30.6224 13.8493 30.8905 13.9861 31.0749 13.9936C31.1551 13.9968 31.2302 13.9898 31.2419 13.978C31.2536 13.9662 31.2417 13.8642 31.2156 13.7514C31.1858 13.623 31.168 13.2686 31.1678 12.8048C31.1676 11.9818 31.2087 11.7365 31.421 11.2935C31.5421 11.0409 31.789 10.7793 31.9851 10.6959L32.1033 10.6456L31.8636 10.4889C31.5124 10.2592 31.1086 10.1461 30.4161 10.0834L30.1154 10.0563L30.2845 9.9795C30.6474 9.81478 31.485 9.85216 32.3428 10.0714C32.5793 10.1318 32.7808 10.1812 32.7907 10.1812C32.8223 10.1812 32.5662 9.86999 32.3782 9.67973C32.161 9.45996 31.8875 9.24753 31.5832 9.06237L31.36 8.92651H31.5884C32.1631 8.92651 33.2305 9.26225 33.6828 9.58524C33.7492 9.6327 33.7801 9.64209 33.7606 9.60889C33.4624 9.10214 33.2346 8.77583 32.8145 8.25356C32.5366 7.90821 32.316 7.61886 32.3242 7.61061C32.3513 7.58312 33.0658 7.96923 33.3829 8.18273C33.7758 8.44724 34.2023 8.86815 34.4197 9.20586L34.5873 9.46624L34.7709 9.44472C34.8719 9.43285 34.961 9.41654 34.969 9.40844C35.001 9.37612 34.7382 8.69553 34.5597 8.34824C34.2917 7.82703 33.8665 7.27305 33.2009 6.57812C32.6381 5.99053 32.412 5.71023 32.6179 5.85521C32.6677 5.89022 32.905 6.03908 33.1453 6.186ZM37.5372 13.5152C37.1524 13.5474 36.7095 13.6566 36.1535 13.8567C34.3958 14.4892 34.2235 14.5324 33.4599 14.5318C32.711 14.5312 32.4151 14.4431 32.0148 14.1014L31.8098 13.9264L31.9356 14.1545C32.3066 14.8272 32.7828 15.2298 33.3747 15.3709C33.843 15.4827 34.4978 15.4198 35.0087 15.214C35.2684 15.1094 35.3218 15.1199 35.4762 15.3055C35.6301 15.4906 35.6459 15.4809 35.6079 15.2241C35.5887 15.0937 35.5853 14.8537 35.6003 14.6909C35.6277 14.3951 35.6278 14.3948 35.7651 14.3365C35.8407 14.3044 35.9521 14.276 36.0128 14.2734C36.1076 14.2693 36.1309 14.2891 36.1789 14.4146C36.2289 14.5455 36.2279 14.6045 36.1691 14.9849C36.102 15.4192 36.1208 15.6184 36.229 15.6184C36.2545 15.6184 36.386 15.5029 36.5212 15.3617C36.6969 15.1781 36.8237 14.9942 36.9666 14.7154C37.0765 14.501 37.1779 14.3258 37.1921 14.3259C37.2927 14.3267 37.4996 14.4146 37.4996 14.4565C37.4996 14.5641 37.3372 15.0382 37.2301 15.243C37.0017 15.6801 36.6765 15.9135 36.245 15.9503C35.9738 15.9734 35.438 16.2167 35.3178 16.3714C35.1608 16.5733 35.2974 16.7195 35.6441 16.7205C36.0704 16.7217 36.8375 16.4458 37.512 16.0485L37.6936 15.9416L37.9076 16.1751C38.0268 16.3052 38.1961 16.5533 38.2897 16.7348L38.4579 17.0609L38.7209 17.1399C39.2638 17.3029 39.532 17.4342 39.8483 17.6918C39.931 17.7591 40.0527 17.842 40.1188 17.876C40.2444 17.9404 40.5811 17.9617 40.5811 17.9052C40.5811 17.8873 40.5243 17.7974 40.455 17.7056C39.7303 16.7451 39.3112 15.7814 39.1919 14.8009C39.1382 14.3591 39.0566 14.0711 38.9418 13.9177C38.8335 13.7731 38.5934 13.6245 38.3827 13.5719C38.197 13.5254 37.7634 13.4964 37.5372 13.5152ZM30.5296 15.4853C30.9795 16.1401 31.6159 16.6533 32.2758 16.8934L32.4077 16.9414L32.2759 16.9989C32.0695 17.0892 31.6818 17.1472 31.4718 17.1194C31.0157 17.0589 30.6055 16.7512 30.4127 16.3249C30.2993 16.0744 30.2254 15.5877 30.2627 15.3381C30.278 15.2363 30.3031 15.1679 30.3186 15.186C30.334 15.2043 30.429 15.3389 30.5296 15.4853ZM15.1404 15.5617C15.1404 16.1208 14.9739 16.5539 14.6436 16.8545C14.3951 17.0805 14.1259 17.1779 13.758 17.175C13.4705 17.1727 13.0478 17.0721 13.0622 17.0094C13.0663 16.9917 13.1637 16.9385 13.2787 16.8912C13.8563 16.6537 14.43 16.1737 14.8416 15.5837C14.9724 15.3961 15.0932 15.2512 15.11 15.2616C15.1267 15.2721 15.1404 15.4071 15.1404 15.5617ZM25.5121 16.5499V17.4435H23.6519H21.7918V18.6598V19.8761L23.5486 19.886L25.3054 19.8959V20.7704V21.6449L23.5486 21.6548L21.7918 21.6647V23.0711V24.4775H23.7271H25.6624V25.371V26.2646H22.6561H19.6498V20.9605V15.6564H22.5809H25.5121V16.5499ZM5.25191 18.0613C5.18348 18.1502 4.92298 18.471 4.67301 18.7742C3.9128 19.6964 3.29448 20.4852 3.03391 20.8654C2.76665 21.2554 2.35269 21.9685 2.30767 22.1164L2.2799 22.2077L2.74456 22.1856C3.24089 22.1621 3.69007 22.0654 3.97871 21.9198L4.14695 21.835L4.19204 21.5106C4.30538 20.6956 4.78774 19.186 5.19847 18.3608C5.34649 18.0634 5.41485 17.8997 5.39099 17.8997C5.38291 17.8997 5.3203 17.9725 5.25191 18.0613ZM41.0659 18.736C40.9715 18.878 40.7343 18.9313 40.4035 18.8847C40.2435 18.8622 40.0956 18.8332 40.075 18.8203C40.0543 18.8073 40.1039 18.8789 40.1852 18.9794C40.5452 19.4238 41.0314 19.736 41.3714 19.7411C41.6228 19.7448 41.6569 19.7015 41.6012 19.4499C41.5565 19.2477 41.4513 19.0605 41.235 18.798C41.1205 18.6592 41.1176 18.6581 41.0659 18.736ZM41.032 20.2435C41.032 20.3096 41.6123 20.9008 41.7955 21.0214C42.0561 21.193 42.4092 21.2901 42.4625 21.2049C42.5446 21.0735 42.4453 20.6904 42.2968 20.5661C42.2453 20.5229 42.2243 20.5226 42.1751 20.5638C42.0972 20.6292 41.7994 20.6211 41.6333 20.549C41.5609 20.5176 41.3961 20.4315 41.2669 20.3576C41.1377 20.2837 41.032 20.2324 41.032 20.2435ZM42.1062 21.8267C42.497 22.1901 42.6966 22.2771 42.8533 22.1524C42.9903 22.0434 42.9715 22.0061 42.7797 22.0061C42.6506 22.0061 42.5267 21.9618 42.2519 21.8172L41.8928 21.6282L42.1062 21.8267ZM35.3952 22.4264C35.348 22.4581 35.3571 22.4794 35.4516 22.5581C35.5136 22.6098 35.5794 22.6522 35.5977 22.6523C35.6979 22.6529 36.53 23.1056 36.9359 23.3803C37.4687 23.7409 37.7466 23.9601 38.4967 24.6112C38.7867 24.8629 39.0762 25.1065 39.1399 25.1525C39.2557 25.2359 39.3722 25.4472 39.3274 25.4925C39.2889 25.5315 39.1166 25.4357 38.8223 25.2116C38.1211 24.6776 36.8594 23.9969 36.0536 23.7178C35.551 23.5437 34.782 23.3738 34.4604 23.3657C34.2481 23.3604 34.044 23.431 34.1041 23.4891C34.1218 23.5061 34.4069 23.5997 34.7376 23.6969C35.4831 23.9161 35.9524 24.1035 36.7481 24.4993C37.4893 24.8681 38.732 25.607 38.937 25.8008C39.045 25.903 39.078 26.0211 38.9888 25.9865C38.9604 25.9755 38.8124 25.9296 38.66 25.8846C38.5075 25.8395 38.0445 25.6939 37.6311 25.5609C37.2178 25.4279 36.6513 25.2483 36.3723 25.1618C35.3184 24.8349 33.9762 24.5503 33.5163 24.5562C32.9512 24.5635 33.1478 24.7117 33.8954 24.8419C35.155 25.0614 36.3179 25.4224 38.4203 26.2466C39.6668 26.7352 39.7336 26.7589 39.8676 26.7589C40.0248 26.7589 40.2476 26.6373 40.4498 26.4413C40.7378 26.1621 40.7338 26.1541 39.914 25.3587C38.5637 24.0486 37.8029 23.4528 36.6633 22.8128C36.1231 22.5094 35.5378 22.3311 35.3952 22.4264ZM9.14662 23.3153C7.98849 23.6191 6.12681 24.6038 5.10603 25.4525C4.61288 25.8625 4.49793 26.0301 4.60443 26.1839C4.71288 26.3406 4.81472 26.2902 5.4085 25.786C6.18551 25.1263 6.9013 24.6871 8.50459 23.8865C9.15635 23.561 9.69948 23.2785 9.71154 23.2588C9.74897 23.1976 9.50076 23.2223 9.14662 23.3153ZM9.52241 23.9704C9.12919 24.0555 8.61909 24.2582 7.90653 24.6125C6.9514 25.0875 6.03178 25.7037 5.42838 26.2731C5.21591 26.4736 5.17453 26.533 5.16939 26.6448C5.16424 26.7577 5.17668 26.7798 5.25168 26.7905C5.41876 26.8144 5.52537 26.7557 5.81953 26.4773C6.53676 25.7986 7.18668 25.3698 8.6926 24.5817C9.58434 24.115 9.94648 23.8997 9.82198 23.9103C9.80192 23.912 9.66708 23.939 9.52241 23.9704ZM9.36518 24.8389C8.9101 24.939 7.73517 25.5068 7.05463 25.9554C6.54273 26.2929 5.96451 26.7297 5.73938 26.949C5.54205 27.1411 5.47873 27.3034 5.56648 27.3922C5.6537 27.4805 5.8269 27.3847 6.19671 27.0437C6.86177 26.4304 7.38411 26.083 8.5876 25.454C9.59103 24.9295 9.7398 24.8432 9.70391 24.8069C9.67204 24.7747 9.64578 24.7771 9.36518 24.8389ZM10.3233 25.9103C10.3504 25.9213 10.3828 25.9199 10.3953 25.9073C10.4078 25.8947 10.3856 25.8857 10.346 25.8873C10.3022 25.8892 10.2933 25.8982 10.3233 25.9103ZM23.4453 27.2328C24.2228 27.353 24.6702 27.5686 25.1425 28.0508C25.4219 28.3361 25.4948 28.4391 25.6569 28.7782C26.1089 29.7232 26.2512 30.8233 26.2145 33.0892C26.1931 34.4122 26.1533 34.8856 26.0062 35.5645C25.6921 37.0147 24.9444 37.8315 23.6924 38.0924C22.9592 38.2451 22.0431 38.2207 21.3967 38.0312C20.0171 37.6267 19.3723 36.6124 19.1616 34.5154C19.0523 33.4275 19.0816 31.2948 19.2187 30.3591C19.3772 29.2772 19.6836 28.5435 20.1916 28.0295C20.5983 27.618 21.12 27.3596 21.7563 27.2545C21.9102 27.2291 22.0614 27.2033 22.0924 27.1971C22.2671 27.1625 23.1396 27.1855 23.4453 27.2328ZM32.6184 27.7451C32.9113 27.8559 33.2174 28.0823 33.3171 28.2617C33.4568 28.5129 33.4812 28.7089 33.5159 29.8576C33.543 30.7531 33.5635 31.0182 33.6249 31.2688C33.7519 31.7865 33.9247 32.1206 34.2972 32.5686C34.4636 32.7687 34.464 32.7699 34.3569 32.7442C34.1284 32.6894 33.6741 32.4493 33.4066 32.2421C33.0369 31.9556 32.6827 31.5289 32.493 31.1415C32.3608 30.8715 32.3364 30.7831 32.3213 30.5181C32.3086 30.2967 32.3228 30.1312 32.3713 29.9339C32.4374 29.6656 32.4373 29.6551 32.367 29.5197C32.3274 29.4432 32.1682 29.2737 32.0132 29.1429C31.8581 29.0122 31.6648 28.8045 31.5836 28.6814C31.2852 28.2294 31.3838 27.8133 31.8241 27.6667C31.9738 27.6169 32.3876 27.6577 32.6184 27.7451ZM13.9755 27.859C14.1605 27.952 14.2761 28.1387 14.2761 28.3443C14.2761 28.658 14.0583 28.9566 13.5879 29.288C13.1517 29.5951 13.1395 29.6205 13.1711 30.1546C13.1938 30.5387 13.1876 30.6139 13.115 30.8345C13.0701 30.971 12.983 31.1631 12.9214 31.2613C12.6766 31.6519 12.1952 32.0846 11.7179 32.3431C11.449 32.4887 10.909 32.6801 10.8721 32.6428C10.8623 32.6328 10.9545 32.521 11.0769 32.3943C11.334 32.1285 11.4768 31.9274 11.6363 31.6067C11.8595 31.1577 11.9476 30.7355 12.0606 29.5725C12.1697 28.4501 12.3402 28.1164 12.9157 27.8985C13.3287 27.7422 13.7145 27.7278 13.9755 27.859ZM7.31925 28.3413C7.36371 28.4587 7.49426 28.7168 7.6094 28.9148C7.72458 29.1128 7.80984 29.2837 7.79894 29.2948C7.75659 29.3376 7.19844 29.1806 6.95752 29.0581C6.67429 28.914 6.42218 28.7184 6.42218 28.6425C6.42218 28.5913 7.1187 28.1276 7.19566 28.1276C7.21922 28.1276 7.27484 28.2238 7.31925 28.3413ZM38.4608 28.4524C38.6246 28.5473 38.8557 28.6542 38.9745 28.69C39.0933 28.7257 39.1906 28.7666 39.1906 28.7808C39.1907 28.8231 38.7574 29.0763 38.5123 29.177C38.2894 29.2687 37.4248 29.5095 37.402 29.4863C37.3956 29.4799 37.493 29.3299 37.6185 29.1529C37.7439 28.9759 37.9075 28.707 37.9819 28.5554C38.0564 28.4038 38.1277 28.2797 38.1403 28.2797C38.1529 28.2797 38.2972 28.3574 38.4608 28.4524ZM22.2729 28.825C21.6072 29.0147 21.3593 29.6204 21.2612 31.2963C21.2134 32.1146 21.2388 34.1685 21.3039 34.7435C21.3973 35.5679 21.567 36.0413 21.8668 36.3141C22.087 36.5144 22.3089 36.5885 22.6749 36.584C23.2161 36.5773 23.4914 36.4125 23.7193 35.9588C23.998 35.4039 24.0841 34.6323 24.0841 32.6903C24.0841 31.3115 24.0453 30.6325 23.9354 30.0858C23.7963 29.3938 23.5913 29.0542 23.2118 28.8873C22.9697 28.7808 22.5303 28.7516 22.2729 28.825ZM9.18202 31.4356C9.36773 31.9559 9.67516 32.6116 9.89338 32.9529C9.98902 33.1026 10.0673 33.2409 10.0673 33.2603C10.0673 33.3237 9.57772 33.4507 9.33301 33.4507C8.98199 33.4507 8.91747 33.4146 8.84438 33.1768C8.75964 32.901 8.72927 32.1222 8.78872 31.7488C8.84682 31.384 8.97384 30.9587 9.01145 31.0032C9.0269 31.0214 9.10363 31.216 9.18202 31.4356ZM37.0726 31.6918C37.1717 32.0556 37.1728 33.002 37.0744 33.2874C37.0368 33.3966 36.9778 33.4938 36.9429 33.5043C36.6367 33.5969 35.9717 33.6284 35.8981 33.5539C35.8844 33.5401 35.9396 33.4385 36.0208 33.3282C36.4083 32.8014 36.7063 32.1769 36.9208 31.4427C36.9487 31.3472 37.0029 31.4362 37.0726 31.6918ZM15.6358 36.8009C15.9167 36.8775 15.9295 36.8859 15.9295 36.9913V37.1016L15.5819 36.9258C15.3908 36.829 15.2273 36.7433 15.2187 36.7353C15.1788 36.698 15.3684 36.7279 15.6358 36.8009ZM29.6942 36.9209C29.4832 37.0285 29.2994 37.1053 29.2857 37.0915C29.2721 37.0777 29.2711 37.0255 29.2835 36.9755C29.302 36.9006 29.3541 36.8707 29.5792 36.806C29.7294 36.7627 29.9031 36.7268 29.9651 36.7262C30.0542 36.7253 29.9975 36.7661 29.6942 36.9209ZM14.5043 37.3879C14.7643 37.4674 15.197 37.5775 15.845 37.7289C15.9227 37.7471 15.9295 37.77 15.9295 38.0141C15.9295 38.1601 15.9152 38.2795 15.8976 38.2795C15.88 38.2795 15.5291 38.1021 15.1179 37.8852C14.7066 37.6683 14.2855 37.4467 14.1821 37.3927C14.0237 37.3099 14.0094 37.2942 14.091 37.2927C14.1442 37.2918 14.3302 37.3346 14.5043 37.3879ZM30.3033 37.8038C29.766 38.0849 29.3129 38.3156 29.2965 38.3163C29.2801 38.317 29.2716 38.1935 29.2777 38.0419L29.2887 37.7662L29.6645 37.6781C29.8712 37.6296 30.2686 37.5239 30.5476 37.4433C31.4105 37.1939 31.3785 37.2412 30.3033 37.8038ZM12.5099 37.9969C13.6443 38.3087 14.6142 38.5029 15.7323 38.6423L15.9295 38.6669V39.2527C15.9295 39.6479 15.9163 39.8384 15.8888 39.8384C15.8307 39.8384 15.3803 39.6527 14.8773 39.4212C14.4208 39.2111 11.8335 37.8652 11.8335 37.8379C11.8335 37.816 11.9598 37.8457 12.5099 37.9969ZM33.4411 37.8395C33.4411 37.8624 31.3308 38.9568 30.604 39.311C29.9071 39.6505 29.3491 39.8835 29.3024 39.8543C29.2479 39.8202 29.2617 38.6983 29.3169 38.679C29.3428 38.6699 29.5837 38.635 29.8524 38.6014C30.6841 38.4974 32.026 38.2098 33.0278 37.921C33.3511 37.8278 33.4411 37.81 33.4411 37.8395ZM22.9526 39.3617C23.1907 39.4467 23.3581 39.597 23.4682 39.8246C23.5527 39.9993 23.5651 40.0654 23.5484 40.2514C23.4989 40.8046 23.1118 41.1274 22.5475 41.0861C22.018 41.0473 21.6494 40.4767 21.8086 39.9422C21.9546 39.4518 22.471 39.1897 22.9526 39.3617ZM22.2991 39.6206C21.9125 39.8394 21.8757 40.4866 22.2351 40.7455C22.7432 41.1115 23.4149 40.7101 23.3132 40.1012C23.2341 39.628 22.7181 39.3835 22.2991 39.6206ZM22.7924 39.6483C22.8227 39.6483 22.8889 39.6903 22.9396 39.7417C23.0541 39.8574 23.0594 40.021 22.9531 40.1577C22.8965 40.2305 22.8853 40.2724 22.9134 40.3066C22.9349 40.3328 22.9866 40.435 23.0284 40.5336L23.1044 40.7129H22.9814C22.8697 40.7129 22.8499 40.6946 22.7666 40.5133C22.6447 40.248 22.5658 40.2488 22.5507 40.5156C22.5397 40.7102 22.5356 40.7172 22.438 40.7058L22.3367 40.6939L22.3261 40.2218C22.3203 39.962 22.3314 39.7336 22.3508 39.7139C22.3962 39.6679 22.6224 39.6137 22.6874 39.6333C22.7149 39.6416 22.7622 39.6483 22.7924 39.6483ZM22.5434 39.9525C22.5434 40.0534 22.5561 40.0666 22.6539 40.0666C22.7815 40.0666 22.8211 40.0213 22.7875 39.9141C22.7709 39.8612 22.7306 39.8384 22.6536 39.8384C22.5562 39.8384 22.5434 39.8517 22.5434 39.9525Z" fill="#5F5F5F"/>
</svg>
