<svg width="22" height="45" viewBox="0 0 22 45" fill="none" xmlns="http://www.w3.org/2000/svg">
<path d="M14.3938 5.75674C12.4996 3.55564 10.8534 1.35454 10.5377 0.8703H10.47C10.1543 1.33253 8.50814 3.55564 6.61389 5.75674C-9.62253 25.9849 9.18466 39.6317 9.18466 39.6317L9.34251 39.7417C9.47782 41.8328 9.83863 44.8703 9.83863 44.8703H11.2368C11.2368 44.8703 11.575 41.8548 11.7103 39.7417L11.8682 39.6097C11.8682 39.6097 30.6303 25.9849 14.3938 5.75674ZM10.47 39.3235C10.0748 39.0066 9.71229 38.6528 9.38762 38.267L10.47 16.256L11.4848 38.267C11.1806 38.6489 10.8409 39.0026 10.47 39.3235Z" fill="#5F5F5F"/>
</svg>
