<svg width="38" height="45" viewBox="0 0 38 45" fill="none" xmlns="http://www.w3.org/2000/svg">
<path fill-rule="evenodd" clip-rule="evenodd" d="M17.9959 0.368307C17.7706 0.599366 17.7688 0.615979 17.7688 2.41357C17.7688 4.21116 17.7706 4.22778 17.9959 4.45884C18.139 4.60579 18.3286 4.69189 18.5088 4.69189C18.689 4.69189 18.8786 4.60579 19.0217 4.45884C19.2469 4.22778 19.2488 4.21116 19.2488 2.41357C19.2488 0.615979 19.2469 0.599366 19.0217 0.368307C18.8786 0.221355 18.689 0.135254 18.5088 0.135254C18.3286 0.135254 18.139 0.221355 17.9959 0.368307ZM23.9293 0.354447L23.6888 0.601265V2.6358V4.67034L23.2534 4.73736C22.2986 4.88431 21.4379 5.54028 21.0088 6.44809C20.8252 6.83654 20.7845 7.06931 20.7845 7.72964C20.7845 8.61439 20.9449 9.08828 21.4625 9.73276C21.7996 10.1524 22.6701 10.6345 23.2494 10.7223L23.6888 10.789V12.064C23.6888 13.2913 23.6973 13.3479 23.9159 13.5721C24.1413 13.8035 24.1554 13.8052 25.9384 13.8052C27.6077 13.8052 27.7507 13.7915 27.9747 13.6107C28.205 13.4248 28.2145 13.3798 28.1952 12.5749C28.1778 11.8504 28.202 11.696 28.3686 11.464C29.0393 10.5301 30.1783 10.5301 30.849 11.464C31.0156 11.696 31.0398 11.8504 31.0224 12.5749C31.003 13.3798 31.0126 13.4248 31.2429 13.6107C31.4723 13.7959 31.6041 13.8052 34.0192 13.8052H36.5547L36.7951 13.5584C37.0328 13.3145 37.0348 13.3005 36.9743 12.3006C36.5766 5.72729 31.5431 0.570507 25.1313 0.16791C24.1837 0.108389 24.1664 0.111142 23.9293 0.354447ZM26.695 1.90968C28.7259 2.3101 30.6822 3.40331 32.2533 5.01569C34.0885 6.8992 35.0956 9.04471 35.4768 11.8828L35.531 12.2863H34.0604H32.5898L32.5249 11.8354C32.4393 11.2408 31.9696 10.3474 31.5606 10.0015C30.9327 9.47028 30.4709 9.30567 29.6088 9.30567C28.9654 9.30567 28.7385 9.34744 28.36 9.53588C27.4755 9.97626 26.8363 10.8596 26.6931 11.8394L26.6278 12.2863H25.8982H25.1688V10.9701C25.1688 9.78734 25.1495 9.62881 24.9793 9.40668C24.7981 9.1703 24.7543 9.16052 23.97 9.18036C23.0554 9.20343 22.821 9.09929 22.4169 8.49003C21.9985 7.85922 22.2033 6.97438 22.8876 6.45682C23.1136 6.28586 23.264 6.26108 23.97 6.27893C24.7543 6.29877 24.7981 6.28899 24.9793 6.05261C25.1571 5.8206 25.1688 5.67783 25.1688 3.72863V1.65185L25.5619 1.70777C25.7781 1.73852 26.288 1.82937 26.695 1.90968ZM9.11588 2.83648C8.991 2.96464 8.88879 3.16902 8.88879 3.29072C8.88879 3.51305 10.0994 5.80076 10.5219 6.37689C10.709 6.63197 10.8103 6.68542 11.1068 6.68542C11.384 6.68542 11.5089 6.62865 11.657 6.43528C11.7625 6.29772 11.8488 6.0977 11.8488 5.99081C11.8488 5.75729 10.4128 3.12023 10.1206 2.81702C9.84219 2.52815 9.40808 2.5366 9.11588 2.83648ZM16.5663 6.36721C15.572 6.52318 13.8254 7.09143 12.9465 7.54491C9.37266 9.38902 6.93981 12.7026 6.14616 16.8074C5.92315 17.9607 5.92315 20.2817 6.14616 21.4351C6.92918 25.4847 9.37784 28.852 12.8432 30.6446L13.3288 30.8958V31.4637V32.0317H12.8076C12.0047 32.0317 11.5837 32.2024 11.0594 32.7404C10.4742 33.341 10.3688 33.6966 10.3688 35.0695C10.3688 36.4423 10.4742 36.7979 11.0594 37.3985C11.5821 37.9349 12.0049 38.1072 12.7983 38.1072H13.3101L13.3426 39.7024L13.375 41.2976L13.7205 42.0148C14.1366 42.8786 14.6724 43.4168 15.5321 43.8348L16.15 44.1353H18.5088H20.8675L21.4854 43.8348C22.3452 43.4168 22.881 42.8786 23.2971 42.0148L23.6425 41.2976L23.675 39.7024L23.7075 38.1072H24.2367C25.0308 38.1072 25.5613 37.8828 26.0289 37.3489C26.5442 36.7608 26.6488 36.3762 26.6488 35.0695C26.6488 33.7627 26.5442 33.3781 26.0289 32.79C25.5597 32.2544 25.0307 32.0317 24.2273 32.0317H23.6888V31.4634V30.8953L24.2272 30.6164C25.8424 29.7796 27.5699 28.2677 28.6799 26.7194C29.3817 25.7405 30.262 23.9199 30.5724 22.8056C30.8458 21.8235 31.0888 20.2274 31.0888 19.4132C31.0888 18.9183 31.0537 18.7918 30.8617 18.5948C30.6348 18.3619 30.6338 18.3618 28.6522 18.3618H26.6698L26.6049 17.9109C26.5193 17.3163 26.0496 16.4229 25.6406 16.077C25.0127 15.5458 24.5509 15.3812 23.6888 15.3812C23.0454 15.3812 22.8185 15.423 22.44 15.6114C21.5555 16.0518 20.9163 16.9351 20.7731 17.915L20.7078 18.3618H19.9782H19.2488V17.0456C19.2488 15.8629 19.2295 15.7043 19.0593 15.4822C18.8781 15.2458 18.8343 15.236 18.05 15.2559C17.344 15.2737 17.1936 15.2489 16.9676 15.078C16.0575 14.3896 16.0575 13.2207 16.9676 12.5323C17.1936 12.3614 17.344 12.3366 18.05 12.3544C18.8343 12.3743 18.8781 12.3645 19.0593 12.1281C19.2398 11.8927 19.2488 11.7574 19.2488 9.2789V6.67678L19.0217 6.44382C18.82 6.23668 18.7195 6.21181 18.1198 6.22007C17.7487 6.2252 17.0496 6.29146 16.5663 6.36721ZM17.7688 9.2377V10.7459L17.3334 10.8129C16.3786 10.9598 15.5179 11.6158 15.0888 12.5236C14.9052 12.9121 14.8645 13.1448 14.8645 13.8052C14.8645 14.6899 15.0249 15.1638 15.5425 15.8083C15.8796 16.228 16.7501 16.71 17.3294 16.7978L17.7688 16.8645V17.6132V18.3618H16.4863C15.3338 18.3618 15.1793 18.3815 14.9629 18.5562C14.7326 18.7422 14.723 18.7872 14.7424 19.5921C14.7598 20.3166 14.7356 20.4709 14.569 20.703C13.8983 21.6369 12.7593 21.6369 12.0885 20.703C11.922 20.4709 11.8978 20.3166 11.9152 19.5921C11.9345 18.7872 11.925 18.7422 11.6947 18.5562C11.4686 18.3738 11.3295 18.3618 9.43019 18.3618H7.40657L7.46077 17.9583C7.84197 15.1202 8.84911 12.9747 10.6843 11.0912C12.3225 9.41 14.4224 8.27881 16.5663 7.92273C16.9479 7.85932 17.3225 7.79496 17.3988 7.77958C17.7742 7.70411 17.7688 7.68246 17.7688 9.2377ZM2.64088 9.48158C2.37115 9.7583 2.34293 10.1856 2.57566 10.4688C2.80035 10.7422 5.45741 12.2863 5.70327 12.2863C5.81363 12.2863 6.01352 12.1977 6.14755 12.0895C6.47038 11.8289 6.48841 11.2705 6.18316 10.9868C5.83435 10.6626 3.31224 9.24852 3.08284 9.24852C2.96463 9.24852 2.76575 9.35342 2.64088 9.48158ZM24.4297 17.0565C25.0234 17.4712 25.1249 17.7117 25.1024 18.6504C25.083 19.4553 25.0926 19.5003 25.3229 19.6863C25.549 19.8687 25.6881 19.8807 27.5874 19.8807H29.611L29.5565 20.2841C29.3327 21.9413 29.006 23.0351 28.3326 24.3818C27.2702 26.506 25.5829 28.2065 23.4691 29.2833C22.954 29.5457 22.4596 29.849 22.3707 29.9572C22.2403 30.1157 22.2088 30.3371 22.2088 31.0929V32.0317H20.7288H19.2488V29.7642V27.4966L19.6853 27.4294C20.1754 27.354 20.8421 27.035 21.2552 26.6783C21.4065 26.5476 21.6719 26.1714 21.8448 25.8424C22.1318 25.2961 22.1591 25.1742 22.1591 24.4373C22.1591 23.6998 22.1319 23.5788 21.8436 23.03C21.3731 22.1344 20.6327 21.5909 19.6842 21.445L19.2488 21.378V20.6293V19.8807H20.5313C21.6838 19.8807 21.8382 19.8609 22.0547 19.6863C22.285 19.5003 22.2945 19.4553 22.2752 18.6504C22.2578 17.9259 22.282 17.7715 22.4486 17.5395C22.7754 17.0844 23.2054 16.8429 23.6888 16.8429C23.9877 16.8429 24.2196 16.9097 24.4297 17.0565ZM0.235877 18.5948C0.0926867 18.7417 0.00878906 18.9363 0.00878906 19.1212C0.00878906 19.3062 0.0926867 19.5008 0.235877 19.6476C0.461022 19.8788 0.477209 19.8807 2.22879 19.8807C3.98037 19.8807 3.99656 19.8788 4.2217 19.6476C4.36489 19.5008 4.44879 19.3062 4.44879 19.1212C4.44879 18.9363 4.36489 18.7417 4.2217 18.5948C3.99656 18.3637 3.98037 18.3618 2.22879 18.3618C0.477209 18.3618 0.461022 18.3637 0.235877 18.5948ZM32.7959 18.5948C32.6527 18.7417 32.5688 18.9363 32.5688 19.1212C32.5688 19.3062 32.6527 19.5008 32.7959 19.6476C33.021 19.8788 33.0372 19.8807 34.7888 19.8807C36.5404 19.8807 36.5566 19.8788 36.7817 19.6476C36.9249 19.5008 37.0088 19.3062 37.0088 19.1212C37.0088 18.9363 36.9249 18.7417 36.7817 18.5948C36.5566 18.3637 36.5404 18.3618 34.7888 18.3618C33.0372 18.3618 33.021 18.3637 32.7959 18.5948ZM10.4131 20.3275C10.5553 21.3009 11.0848 22.0607 11.9575 22.5436C12.4922 22.8395 12.6102 22.8674 13.3288 22.8674C14.0469 22.8674 14.1656 22.8394 14.6979 22.5449C15.0185 22.3675 15.3851 22.0951 15.5124 21.9398C15.86 21.5158 16.1709 20.8316 16.2443 20.3286L16.3098 19.8807H17.0393H17.7688V21.1969C17.7688 22.3796 17.788 22.5381 17.9582 22.7603C18.1394 22.9966 18.1833 23.0064 18.9676 22.9866C19.6735 22.9687 19.824 22.9935 20.05 23.1645C20.96 23.8528 20.96 25.0218 20.05 25.7101C19.824 25.8811 19.6735 25.9059 18.9676 25.888C17.7098 25.8561 17.7688 25.6931 17.7688 29.1966V32.0317H16.2888H14.8088V31.0929C14.8088 30.3371 14.7772 30.1157 14.6469 29.9572C14.5578 29.849 14.0678 29.5478 13.5577 29.288C10.1613 27.558 7.90505 24.2205 7.47086 20.2841L7.42636 19.8807H8.88712H10.3478L10.4131 20.3275ZM4.12504 26.7664C3.36191 27.2116 2.66474 27.6647 2.57566 27.7733C2.22537 28.2006 2.55494 28.9939 3.08284 28.9939C3.31224 28.9939 5.83435 27.5799 6.18316 27.2557C6.48841 26.9719 6.47038 26.4136 6.14755 26.153C6.01352 26.0448 5.81575 25.9564 5.70818 25.9566C5.6006 25.9568 4.88816 26.3212 4.12504 26.7664ZM30.87 26.153C30.6816 26.305 30.6263 26.4332 30.6263 26.7177C30.6263 27.022 30.6784 27.1259 30.9269 27.318C31.4883 27.7515 33.7175 28.9939 33.9341 28.9939C34.4625 28.9939 34.7926 28.2005 34.4419 27.7737C34.2172 27.5002 31.5602 25.9562 31.3143 25.9562C31.204 25.9562 31.0041 26.0448 30.87 26.153ZM24.9417 33.7836C25.1555 34.003 25.1688 34.0782 25.1688 35.0695C25.1688 36.0607 25.1555 36.1359 24.9417 36.3553L24.7147 36.5883H18.5088H12.3029L12.0759 36.3553C11.8621 36.1359 11.8488 36.0607 11.8488 35.0695C11.8488 34.0782 11.8621 34.003 12.0759 33.7836L12.3029 33.5506H18.5088H24.7147L24.9417 33.7836ZM16.2888 39.393C16.2888 40.6318 16.2971 40.6875 16.5159 40.9119C16.8162 41.2202 17.2414 41.2202 17.5417 40.9119C17.7605 40.6875 17.7688 40.6318 17.7688 39.393V38.1072H18.5088H19.2488V39.393C19.2488 40.6318 19.2571 40.6875 19.4759 40.9119C19.619 41.0589 19.8086 41.145 19.9888 41.145C20.169 41.145 20.3586 41.0589 20.5017 40.9119C20.7205 40.6875 20.7288 40.6318 20.7288 39.393V38.1072H21.4688H22.2088V39.4015C22.2088 41.0123 22.1212 41.3362 21.5182 41.9551C20.8816 42.6084 20.6461 42.6638 18.5088 42.6638C16.3715 42.6638 16.136 42.6084 15.4994 41.9551C14.8964 41.3362 14.8088 41.0123 14.8088 39.4015V38.1072H15.5488H16.2888V39.393Z" fill="#5F5F5F"/>
</svg>
