<svg width="42" height="45" viewBox="0 0 42 45" fill="none" xmlns="http://www.w3.org/2000/svg">
<path fill-rule="evenodd" clip-rule="evenodd" d="M34.6375 1.23316V2.33107H35.382H36.1264V1.23316V0.135254H35.382H34.6375V1.23316ZM30.2756 2.76273C30.0147 3.05367 29.8007 3.31388 29.7999 3.34096C29.7992 3.36804 30.1573 3.71288 30.5957 4.1073L31.3927 4.82451L31.8386 4.33264C32.0839 4.06201 32.2801 3.80089 32.2746 3.75222C32.2691 3.70345 31.9238 3.34197 31.5072 2.94873L30.7498 2.23381L30.2756 2.76273ZM39.2205 3.02769C38.7982 3.40802 38.4528 3.7685 38.4528 3.8288C38.4528 3.88909 38.6738 4.15295 38.9439 4.41517L39.4348 4.89203L40.2218 4.11425L41.0088 3.33648L40.4986 2.83638L39.9882 2.33628L39.2205 3.02769ZM34.9896 3.89211C34.9017 3.94243 34.5822 4.49266 34.2795 5.11472C33.6588 6.39049 33.8606 6.25243 32.2646 6.49296C31.4843 6.61053 31.3003 6.67082 31.1247 6.86607C30.7559 7.27613 30.8384 7.47238 31.7993 8.47047C32.3303 9.02199 32.6834 9.46435 32.6834 9.57808C32.6834 9.6822 32.5973 10.2634 32.492 10.8697C32.3036 11.9555 32.3034 11.9754 32.4784 12.2065C32.576 12.3355 32.7675 12.48 32.9039 12.5278C33.1689 12.6207 33.3897 12.5319 34.7583 11.7822L35.3908 11.4357L36.0611 11.7982C37.6174 12.64 37.5814 12.6253 37.8532 12.5303C37.9934 12.4811 38.1869 12.3369 38.2831 12.2098C38.4549 11.983 38.4542 11.9553 38.2501 10.7248L38.0421 9.47112L38.9454 8.56718C39.8778 7.63414 39.9868 7.42188 39.7535 6.99324C39.6007 6.71254 39.326 6.61812 38.146 6.44044C37.5344 6.34831 37.0213 6.26066 37.006 6.24556C36.9907 6.23056 36.75 5.7408 36.4711 5.15717C35.862 3.88259 35.5182 3.58909 34.9896 3.89211ZM31.0549 15.6085C28.8029 16.8665 26.6591 18.0597 26.2909 18.26L25.6214 18.624L25.6742 18.0028C25.8076 16.4354 24.8421 14.8667 23.3966 14.3022C22.6436 14.0081 21.3203 14.0081 20.5673 14.3022C19.5509 14.6992 18.6753 15.7 18.3911 16.7899C17.9547 18.4636 18.8277 20.2797 20.4078 20.985L20.9691 21.2355L16.7277 23.5957C14.3947 24.8937 12.4451 26.031 12.3951 26.1229C12.3451 26.2148 12.3042 27.0563 12.3042 27.9928C12.3042 29.6787 12.3064 29.6978 12.5326 29.9201C12.6596 30.045 12.8699 30.1447 13.0064 30.1447C13.1598 30.1447 14.4257 29.4537 16.3839 28.3011C18.1066 27.287 19.5398 26.4452 19.5689 26.4303C19.5981 26.4154 19.6083 26.5142 19.5916 26.65C19.575 26.7857 19.4361 28.192 19.2831 29.7752C19.1021 31.6478 18.9641 32.6904 18.8882 32.759C18.824 32.817 17.5572 33.7606 16.0729 34.8559C14.5887 35.9513 13.3011 36.929 13.2114 37.0287C13.0686 37.1877 13.0486 37.4224 13.0486 38.9422C13.0486 40.6596 13.0506 40.6766 13.2771 40.8992C13.413 41.0329 13.6131 41.1238 13.7715 41.1238C14.0334 41.1238 14.8298 40.5564 26.6624 31.9388C27.9827 30.9772 29.2285 30.075 29.4308 29.9338L29.7986 29.6772L29.798 29.8881C29.7977 30.0041 29.7142 30.5724 29.6125 31.1511C29.3783 32.4844 29.3803 32.6333 29.6358 32.8619C29.9155 33.1122 32.1256 33.8248 32.5068 33.7877C33.0419 33.7355 33.1049 33.5429 33.5165 30.7017C33.9264 27.8722 33.9634 27.2531 33.7572 26.6785C33.4433 25.8034 32.6569 25.0566 31.8048 24.8243C31.2611 24.676 30.3681 24.7071 29.9016 24.8907C29.6803 24.9778 28.8706 25.4975 28.1023 26.0458C27.3341 26.594 26.6912 27.0286 26.6739 27.0115C26.6407 26.9789 27.073 23.0053 27.1443 22.6867C27.1735 22.5565 28.123 21.967 30.3765 20.6797C35.2748 17.8816 36.0064 17.4454 36.0687 17.2858C36.1005 17.2044 36.1264 16.3776 36.1264 15.4483V13.7589L35.8802 13.5345C35.7436 13.41 35.5261 13.3126 35.3917 13.3156C35.2539 13.3187 33.3823 14.3082 31.0549 15.6085ZM34.6362 15.9405L34.6348 16.5581L30.2523 19.0693C27.5206 20.6345 25.839 21.6512 25.7884 21.7683C25.7165 21.9347 24.9597 28.3452 24.9597 28.7884C24.9597 29.0754 25.3756 29.4128 25.7292 29.4128C25.9862 29.4128 26.3719 29.1722 27.897 28.0609C30.3973 26.2387 30.3184 26.2897 30.7227 26.2364C31.4699 26.1378 32.2316 26.6613 32.366 27.3658C32.4298 27.6999 31.8822 31.8522 31.7551 31.9986C31.7218 32.037 31.5611 32.0227 31.398 31.9668C31.189 31.8951 31.1012 31.807 31.1007 31.6682C31.1003 31.5599 31.2333 30.6595 31.3961 29.6672C31.6365 28.2029 31.6719 27.8192 31.5841 27.6297C31.4445 27.3285 31.0434 27.1697 30.7186 27.2869C30.5218 27.358 25.2333 31.1609 15.5844 38.1702L14.5375 38.9307V38.3809V37.8311L17.4701 35.6682C19.3205 34.3035 20.4199 33.4338 20.4493 33.3117C20.4977 33.1104 21.2375 25.2313 21.2375 24.9171C21.2375 24.6692 20.8267 24.2892 20.5586 24.2892C20.4357 24.2892 18.8735 25.145 17.0647 26.2032L13.793 28.1172L13.7957 27.507L13.7984 26.8967L24.1947 21.1109C29.9127 17.9287 34.6015 15.3245 34.6143 15.324C34.627 15.3234 34.637 15.6008 34.6362 15.9405ZM22.6691 15.6172C23.1802 15.7657 23.9511 16.5236 24.1021 17.0262C24.3599 17.884 24.1782 18.5679 23.5205 19.2145C22.5791 20.1401 21.3848 20.1401 20.4434 19.2145C19.5019 18.2889 19.5019 17.1157 20.4434 16.188C21.0962 15.5448 21.7993 15.3645 22.6691 15.6172ZM5.92323 31.7584C4.7497 32.5452 3.27728 33.5349 2.6512 33.9575L1.51294 34.7258L1.90675 35.3159C2.12339 35.6405 2.34253 35.8906 2.39372 35.8719C2.4449 35.853 3.94393 34.8612 5.72483 33.6679L8.96289 31.4981L8.80321 31.256C8.29708 30.4887 8.17871 30.3277 8.12093 30.3277C8.08566 30.3277 7.09675 30.9715 5.92323 31.7584ZM8.30276 36.5139C5.51341 38.3496 3.1711 39.8864 3.09759 39.9291C2.98937 39.9917 3.04017 40.1217 3.36438 40.6109C3.58464 40.9433 3.78118 41.2153 3.80109 41.2153C3.88614 41.2153 14.1653 34.4383 14.1653 34.3822C14.1653 34.3252 13.4144 33.1563 13.3867 33.1701C13.3799 33.1735 11.0921 34.6782 8.30276 36.5139ZM24.1222 36.5016C22.3053 37.8794 20.8235 39.0648 20.8293 39.1358C20.8458 39.3409 21.5482 40.2165 21.6617 40.1737C21.8594 40.0992 28.3561 35.1576 28.3336 35.0988C28.2892 34.9826 27.5179 33.9948 27.4722 33.9956C27.4467 33.9962 25.9392 35.1238 24.1222 36.5016ZM18.5085 40.7456L17.802 41.2823L18.2261 41.8436C18.4593 42.1522 18.6747 42.4047 18.7044 42.4047C18.7343 42.4047 19.0674 42.1723 19.4445 41.8882C19.8573 41.5773 20.1116 41.3235 20.0832 41.2508C20.0122 41.069 19.3457 40.2089 19.2758 40.2089C19.2423 40.2089 18.897 40.4504 18.5085 40.7456ZM9.77173 41.8371C8.93405 42.4506 8.32677 42.9568 8.34984 43.0225C8.37199 43.0856 8.56266 43.3617 8.77343 43.6362L9.15664 44.1353L10.64 43.0371L12.1235 41.9389L11.8394 41.5542C11.6833 41.3426 11.4831 41.0788 11.3947 40.9679L11.234 40.7663L9.77173 41.8371ZM0.689399 41.5017L0.00878906 41.9612L0.170055 42.2059C0.668182 42.9609 0.794924 43.1366 0.841359 43.1366C0.946326 43.1366 2.25181 42.2647 2.25292 42.1938C2.25478 42.0827 1.51266 41.0316 1.43645 41.0372C1.39997 41.04 1.06376 41.249 0.689399 41.5017Z" fill="#5F5F5F"/>
</svg>
