<svg width="39" height="45" viewBox="0 0 39 45" fill="none" xmlns="http://www.w3.org/2000/svg">
<path fill-rule="evenodd" clip-rule="evenodd" d="M16.0613 0.19163C14.592 0.319448 12.4864 0.81241 11.1729 1.33589C10.2109 1.71943 8.52978 2.59043 8.33459 2.80661C8.22516 2.92781 8.1713 3.1145 8.1713 3.37272C8.1713 3.68818 8.21487 3.79545 8.41195 3.96539C8.7766 4.27974 9.14795 4.23873 9.96362 3.79391C13.2593 1.99638 17.2327 1.41617 20.8639 2.20207C26.0463 3.32372 30.4104 7.03061 32.3422 11.9519C32.9907 13.6041 33.308 15.0602 33.4282 16.9374L33.4998 18.0548L34.9027 22.6105L36.3056 27.1662L34.2449 27.2092C33.1116 27.2329 32.1154 27.2859 32.0311 27.3271C31.6567 27.5101 31.627 27.745 31.6256 30.5358C31.6242 33.411 31.5723 33.8624 31.1459 34.7059C30.6387 35.7091 29.4618 36.5999 28.3331 36.8348C28.0129 36.9014 26.5973 36.9224 23.8081 36.9021C19.9227 36.8739 19.7197 36.8644 19.0629 36.6812C17.8413 36.3404 16.875 35.8114 15.7815 34.8847C15.2056 34.3968 14.9855 34.3382 14.5588 34.5594C14.245 34.7221 14.1317 34.9304 14.1317 35.3448C14.1317 35.6284 14.1937 35.7284 14.6209 36.1333C15.9877 37.4287 17.7643 38.2639 19.7585 38.5485L20.7115 38.6845L20.0828 40.8764C19.7371 42.0819 19.453 43.1772 19.4515 43.3103C19.4479 43.6418 19.5791 43.8591 19.8759 44.0129C20.2321 44.1975 20.5175 44.174 20.7948 43.9372C21.0043 43.7583 21.1296 43.4056 21.7644 41.2081L22.4934 38.6845L25.5379 38.6342C28.8299 38.5798 28.9542 38.5639 30.0204 38.0596C31.4586 37.3794 32.5401 36.1341 33.061 34.5585C33.2813 33.8919 33.2894 33.7955 33.323 31.4057L33.3576 28.9407L35.137 28.913L36.9164 28.8854L37.2581 28.6478C37.7241 28.3239 38.0076 27.7971 38.0088 27.2526C38.0095 26.9373 37.6271 25.5793 36.5764 22.1666C35.3595 18.2138 35.1431 17.4282 35.1431 16.9639C35.1431 16.6632 35.1027 16.0893 35.0533 15.6888C34.2182 8.91805 29.671 3.28221 23.267 1.08068C21.081 0.329247 18.3507 -0.0077038 16.0613 0.19163ZM5.36829 5.10741C5.15389 5.29944 5.09249 5.42373 5.09249 5.66562C5.09249 6.22932 5.61194 6.67036 6.1241 6.54152C6.76577 6.38009 6.97785 5.58507 6.50557 5.11171C6.16484 4.7702 5.74658 4.76866 5.36829 5.10741ZM15.7611 6.70561C12.8162 7.19711 10.2225 8.77364 8.47892 11.1319C7.72243 12.1549 6.98892 13.6937 6.65385 14.9604C6.39168 15.9515 6.38087 16.0592 6.37693 17.711C6.37332 19.2427 6.39502 19.5191 6.57658 20.2467C7.67192 24.6364 10.907 27.7665 15.3369 28.7227C16.3404 28.9393 18.519 28.9416 19.5346 28.7271C24.5311 27.672 28.0376 23.7689 28.5433 18.6992C28.6518 17.6122 28.5434 16.1559 28.2763 15.109C28.1143 14.4744 28.1144 14.4671 28.2833 14.2518C28.4823 13.9983 28.5085 13.4867 28.3352 13.2388C28.27 13.1455 27.9273 12.8855 27.5738 12.661C26.8095 12.1757 26.3806 12.1192 26.0418 12.4588C25.8476 12.6534 25.3664 13.9372 25.3664 14.2606C25.3664 14.6909 25.753 15.0396 26.3045 15.1068C26.5669 15.1387 26.6969 15.5892 26.8233 16.9046C27.0853 19.6293 26.1122 22.3724 24.1853 24.3415C20.4269 28.182 14.3144 28.1349 10.6202 24.2369C8.90876 22.4311 8.04266 20.237 8.04266 17.7073C8.04266 15.2564 8.92154 13.0568 10.6109 11.2798C11.4746 10.3712 12.1937 9.8408 13.317 9.28337C15.6196 8.14048 18.0942 7.99728 20.6199 8.86063C21.6618 9.21675 21.9549 9.23308 22.2365 8.9508C22.526 8.66069 22.588 8.34059 22.4221 7.99204C21.9767 7.0558 18.1227 6.3115 15.7611 6.70561ZM3.01081 7.99642C2.58381 8.29624 1.4684 10.5156 0.922964 12.1506C-0.153935 15.379 -0.278373 18.7557 0.544245 22.4315C0.951952 24.2535 1.37201 25.4605 2.34145 27.596C3.58369 30.3327 4.04346 32.6303 3.84192 35.0958C3.73652 36.3852 3.7812 36.1602 2.88783 39.9013C2.46837 41.658 2.12516 43.198 2.12516 43.3237C2.12516 43.6437 2.26015 43.8615 2.55225 44.0129C2.92119 44.2041 3.20515 44.1721 3.4963 43.9063C3.73806 43.6856 3.8011 43.4789 4.44713 40.7904C5.35603 37.0078 5.45294 36.516 5.55517 35.1655C5.76459 32.4009 5.25329 29.8278 3.92022 26.9367C2.86974 24.6587 2.21632 22.5339 1.91565 20.4186C1.36395 16.5369 2.01427 12.9715 3.85907 9.76309C4.09114 9.35952 4.30143 8.92836 4.3263 8.80484C4.37964 8.54061 4.16653 8.08384 3.93086 7.95748C3.6915 7.82906 3.22093 7.849 3.01081 7.99642ZM16.4077 10.7151C15.2735 10.8808 14.1087 11.3792 13.1266 12.1193C11.4229 13.4031 10.3582 15.5702 10.3582 17.754C10.3582 20.9898 12.5359 23.7874 15.7183 24.6396C16.6052 24.8771 18.1943 24.8987 19.0201 24.6845C21.6077 24.013 23.4753 22.2479 24.265 19.7273C24.4394 19.1705 24.4659 18.9113 24.4659 17.754C24.4659 16.5962 24.4395 16.3376 24.2648 15.78C23.1778 12.3103 19.9099 10.2038 16.4077 10.7151ZM18.4425 12.4611C20.4795 12.8517 22.1348 14.4144 22.6589 16.4414C22.8286 17.098 22.8301 18.3185 22.6619 19.0335C22.2514 20.7789 20.8203 22.3115 19.0696 22.8805C18.0792 23.2025 16.77 23.2057 15.8469 22.8885C14.8806 22.5564 14.4163 22.2623 13.6528 21.4988C13.1505 20.9964 12.8746 20.634 12.651 20.1826C11.6237 18.1082 12.004 15.6438 13.6032 14.0132C14.9215 12.6693 16.6451 12.1164 18.4425 12.4611ZM17.0283 13.934C16.8997 14.0039 16.755 14.1352 16.7066 14.2257C16.5892 14.4458 16.5895 17.9684 16.7071 18.1885C16.8788 18.5101 17.2433 18.6135 18.2053 18.6135C19.4564 18.6135 19.7919 18.4249 19.7919 17.7215C19.7919 17.5287 19.7191 17.3349 19.5904 17.1849C19.4213 16.988 19.3042 16.9441 18.8615 16.912L18.334 16.8738V15.7639C18.334 14.4997 18.2363 14.145 17.8304 13.9346C17.5117 13.7694 17.3311 13.7693 17.0283 13.934Z" fill="#5F5F5F"/>
</svg>
