<svg width="64" height="10" viewBox="0 0 64 10" fill="none" xmlns="http://www.w3.org/2000/svg">
<path d="M5.0382 0.0158691L6.74779 2.93065L10.0676 3.64455L7.80438 6.15988L8.14655 9.51587L5.0382 8.15565L1.92985 9.51587L2.27202 6.15988L0.00878906 3.64455L3.32861 2.93065L5.0382 0.0158691Z" fill="#DFB300"/>
<path d="M18.4503 0.0158691L20.1599 2.93065L23.4797 3.64455L21.2165 6.15988L21.5587 9.51587L18.4503 8.15565L15.342 9.51587L15.6841 6.15988L13.4209 3.64455L16.7407 2.93065L18.4503 0.0158691Z" fill="#DFB300"/>
<path d="M31.8624 0.0158691L33.572 2.93065L36.8918 3.64455L34.6286 6.15988L34.9708 9.51587L31.8624 8.15565L28.7541 9.51587L29.0962 6.15988L26.833 3.64455L30.1528 2.93065L31.8624 0.0158691Z" fill="#DFB300"/>
<path d="M45.2736 0.0158691L46.9831 2.93065L50.303 3.64455L48.0397 6.15988L48.3819 9.51587L45.2736 8.15565L42.1652 9.51587L42.5074 6.15988L40.2441 3.64455L43.564 2.93065L45.2736 0.0158691Z" fill="#DFB300"/>
<path d="M58.6847 0.0158691L60.3943 2.93065L63.7141 3.64455L61.4509 6.15988L61.793 9.51587L58.6847 8.15565L55.5763 9.51587L55.9185 6.15988L53.6553 3.64455L56.9751 2.93065L58.6847 0.0158691Z" fill="#DFB300"/>
</svg>
